<svg width="32" height="32" viewBox="0 0 32 32" fill="none" xmlns="http://www.w3.org/2000/svg">
    <path fill-rule="evenodd" clip-rule="evenodd"
        d="M19.1181 5.27197C19.2041 5.39045 19.2508 5.53291 19.2514 5.67928C19.2547 5.83333 19.2068 5.98412 19.1155 6.10822C19.0241 6.23232 18.8942 6.32278 18.7461 6.36555L17.0098 6.94824C16.4696 7.12813 15.9788 7.43123 15.5763 7.83353C15.1737 8.23583 14.8704 8.72627 14.6903 9.26602L14.1073 11.0011C14.0547 11.1298 13.9651 11.2399 13.8497 11.3174C13.7343 11.3949 13.5984 11.4362 13.4594 11.4362C13.3203 11.4362 13.1845 11.3949 13.0691 11.3174C12.9537 11.2399 12.864 11.1298 12.8115 11.0011L12.2284 9.26602C12.0484 8.72627 11.7451 8.23583 11.3425 7.83353C10.9399 7.43123 10.4491 7.12813 9.90897 6.94824L8.17264 6.36555C8.04391 6.31308 7.93373 6.22346 7.85618 6.10815C7.77863 5.99284 7.73721 5.85706 7.73721 5.71812C7.73721 5.57919 7.77863 5.44341 7.85618 5.32809C7.93373 5.21278 8.04391 5.12317 8.17264 5.0707L9.90897 4.48801C10.4491 4.30812 10.9399 4.00502 11.3425 3.60272C11.7451 3.20042 12.0484 2.70998 12.2284 2.17023L12.8374 0.435122C12.8899 0.306479 12.9796 0.196386 13.095 0.118888C13.2104 0.0413894 13.3463 0 13.4853 0C13.6243 0 13.7602 0.0413894 13.8756 0.118888C13.991 0.196386 14.0807 0.306479 14.1332 0.435122L14.7163 2.17023C14.9031 2.70039 15.2094 3.18051 15.6116 3.57343C16.0138 3.96636 16.5011 4.26157 17.0357 4.43622L18.772 5.0189C18.911 5.06498 19.0321 5.1535 19.1181 5.27197ZM29.488 14.0052L31.4446 14.6526C31.6051 14.7004 31.7458 14.7987 31.8459 14.9328C31.9459 15.067 32 15.2298 32 15.3972C32 15.5645 31.9459 15.7273 31.8459 15.8615C31.7458 15.9956 31.6051 16.0939 31.4446 16.1417L29.488 16.7891C28.8849 16.9908 28.3369 17.3297 27.8872 17.7791C27.4375 18.2285 27.0983 18.7761 26.8965 19.3788L26.2486 21.3341C26.2008 21.4944 26.1024 21.635 25.9682 21.735C25.8339 21.835 25.671 21.889 25.5035 21.889C25.3361 21.889 25.1731 21.835 25.0389 21.735C24.9046 21.635 24.8063 21.4944 24.7585 21.3341L24.1106 19.3788C23.9087 18.7761 23.5696 18.2285 23.1199 17.7791C22.6702 17.3297 22.1222 16.9908 21.519 16.7891L19.5624 16.1417C19.402 16.0939 19.2612 15.9956 19.1612 15.8615C19.0611 15.7273 19.0071 15.5645 19.0071 15.3972C19.0071 15.2298 19.0611 15.067 19.1612 14.9328C19.2612 14.7987 19.402 14.7004 19.5624 14.6526L21.519 14.0052C22.1222 13.8035 22.6702 13.4646 23.1199 13.0152C23.5696 12.5658 23.9087 12.0182 24.1106 11.4155L24.7585 9.46025C24.8063 9.29991 24.9046 9.15927 25.0389 9.05928C25.1731 8.95928 25.3361 8.90527 25.5035 8.90527C25.671 8.90527 25.8339 8.95928 25.9682 9.05928C26.1024 9.15927 26.2008 9.29991 26.2486 9.46025L26.8965 11.4155C27.0983 12.0182 27.4375 12.5658 27.8872 13.0152C28.3369 13.4646 28.8849 13.8035 29.488 14.0052ZM13.6019 21.7225L16.1934 22.5642L16.2453 22.5771C16.445 22.6475 16.618 22.7781 16.7403 22.9509C16.8627 23.1237 16.9284 23.3301 16.9284 23.5418C16.9284 23.7534 16.8627 23.9599 16.7403 24.1327C16.618 24.3054 16.445 24.436 16.2453 24.5065L13.6537 25.3481C12.8659 25.6098 12.1499 26.0516 11.5628 26.6383C10.9757 27.2249 10.5337 27.9404 10.2718 28.7277L9.42953 31.3174C9.35907 31.517 9.22838 31.6898 9.05548 31.8121C8.88258 31.9343 8.67599 32 8.46419 32C8.25238 32 8.04579 31.9343 7.87289 31.8121C7.69999 31.6898 7.5693 31.517 7.49884 31.3174L6.65659 28.7277C6.39641 27.938 5.95511 27.2199 5.36793 26.6309C4.78074 26.0419 4.06391 25.5982 3.27464 25.3352L0.683101 24.4935C0.483359 24.4231 0.310394 24.2925 0.188048 24.1197C0.0657018 23.9469 0 23.7405 0 23.5288C0 23.3172 0.0657018 23.1107 0.188048 22.938C0.310394 22.7652 0.483359 22.6346 0.683101 22.5642L3.27464 21.7225C4.05292 21.454 4.75851 21.0092 5.33621 20.4229C5.91391 19.8366 6.34808 19.1247 6.60476 18.3429L7.44701 15.7532C7.51747 15.5536 7.64816 15.3808 7.82106 15.2585C7.99396 15.1363 8.20055 15.0706 8.41235 15.0706C8.62416 15.0706 8.83075 15.1363 9.00365 15.2585C9.17655 15.3808 9.30724 15.5536 9.3777 15.7532L10.22 18.3429C10.4819 19.1303 10.9239 19.8457 11.511 20.4324C12.0981 21.019 12.814 21.4608 13.6019 21.7225ZM11.2315 22.5363L12.6093 22.9837L12.6368 22.9906C12.743 23.028 12.835 23.0975 12.9 23.1893C12.9651 23.2812 13 23.3909 13 23.5034C13 23.616 12.9651 23.7257 12.9 23.8176C12.835 23.9094 12.743 23.9788 12.6368 24.0163L11.259 24.4637C10.8402 24.6029 10.4595 24.8377 10.1474 25.1496C9.83528 25.4615 9.60026 25.8418 9.46101 26.2604L9.01323 27.6371C8.97577 27.7432 8.90628 27.8351 8.81436 27.9001C8.72244 27.9651 8.61261 28 8.5 28C8.38739 28 8.27756 27.9651 8.18564 27.9001C8.09372 27.8351 8.02423 27.7432 7.98677 27.6371L7.53899 26.2604C7.40066 25.8405 7.16605 25.4588 6.85387 25.1457C6.54169 24.8326 6.16058 24.5967 5.74097 24.4568L4.36317 24.0094C4.25698 23.972 4.16502 23.9025 4.09998 23.8107C4.03493 23.7188 4 23.6091 4 23.4966C4 23.384 4.03493 23.2743 4.09998 23.1824C4.16502 23.0906 4.25698 23.0212 4.36317 22.9837L5.74097 22.5363C6.15474 22.3935 6.52987 22.1571 6.837 21.8454C7.14414 21.5337 7.37497 21.1553 7.51143 20.7396L7.95922 19.3629C7.99668 19.2568 8.06616 19.1649 8.15808 19.0999C8.25 19.0349 8.35984 19 8.47244 19C8.58505 19 8.69489 19.0349 8.78681 19.0999C8.87873 19.1649 8.94821 19.2568 8.98567 19.3629L9.43346 20.7396C9.5727 21.1582 9.80772 21.5385 10.1198 21.8504C10.432 22.1623 10.8126 22.3971 11.2315 22.5363ZM27.7829 15.2132L27.0175 14.9646C26.7848 14.8873 26.5733 14.7568 26.3999 14.5836C26.2265 14.4103 26.0959 14.199 26.0186 13.9665L25.7698 13.2016C25.749 13.1427 25.7104 13.0916 25.6593 13.0555C25.6083 13.0194 25.5473 13 25.4847 13C25.4221 13 25.3611 13.0194 25.31 13.0555C25.259 13.0916 25.2204 13.1427 25.1996 13.2016L24.9508 13.9665C24.875 14.1974 24.7467 14.4076 24.5761 14.5808C24.4055 14.7539 24.1971 14.8853 23.9672 14.9646L23.2018 15.2132C23.1428 15.234 23.0917 15.2725 23.0555 15.3236C23.0194 15.3746 23 15.4356 23 15.4981C23 15.5606 23.0194 15.6216 23.0555 15.6726C23.0917 15.7236 23.1428 15.7622 23.2018 15.783L23.9672 16.0316C24.2003 16.1093 24.412 16.2403 24.5855 16.4143C24.7589 16.5882 24.8893 16.8003 24.9661 17.0335L25.2149 17.7984C25.2357 17.8573 25.2743 17.9084 25.3254 17.9445C25.3764 17.9806 25.4374 18 25.5 18C25.5626 18 25.6236 17.9806 25.6746 17.9445C25.7257 17.9084 25.7643 17.8573 25.7851 17.7984L26.0339 17.0335C26.1113 16.801 26.2418 16.5897 26.4152 16.4164C26.5886 16.2432 26.8001 16.1127 27.0328 16.0354L27.7982 15.7868C27.8572 15.766 27.9083 15.7275 27.9445 15.6764C27.9806 15.6254 28 15.5644 28 15.5019C28 15.4394 27.9806 15.3784 27.9445 15.3274C27.9083 15.2764 27.8572 15.2378 27.7982 15.217L27.7829 15.2132ZM14.4105 5.17876L14.8698 5.32791L14.8789 5.3302C14.9143 5.34268 14.945 5.36582 14.9667 5.39644C14.9884 5.42706 15 5.46364 15 5.50115C15 5.53865 14.9884 5.57524 14.9667 5.60585C14.945 5.63647 14.9143 5.65961 14.8789 5.67209L14.4197 5.82124C14.2801 5.86762 14.1532 5.9459 14.0491 6.04986C13.9451 6.15382 13.8668 6.2806 13.8203 6.42012L13.6711 6.87904C13.6586 6.91441 13.6354 6.94503 13.6048 6.9667C13.5741 6.98837 13.5375 7 13.5 7C13.4625 7 13.4259 6.98837 13.3952 6.9667C13.3646 6.94503 13.3414 6.91441 13.3289 6.87904L13.1797 6.42012C13.1336 6.28018 13.0553 6.15294 12.9513 6.04856C12.8472 5.94418 12.7202 5.86555 12.5803 5.81894L12.1211 5.6698C12.0857 5.65732 12.055 5.63418 12.0333 5.60356C12.0116 5.57294 12 5.53636 12 5.49885C12 5.46135 12.0116 5.42476 12.0333 5.39415C12.055 5.36353 12.0857 5.34039 12.1211 5.32791L12.5803 5.17876C12.7182 5.13117 12.8433 5.05235 12.9457 4.94846C13.048 4.84456 13.125 4.71842 13.1705 4.57988L13.3197 4.12096C13.3322 4.08559 13.3554 4.05497 13.386 4.0333C13.4167 4.01163 13.4533 4 13.4908 4C13.5284 4 13.565 4.01163 13.5956 4.0333C13.6262 4.05497 13.6494 4.08559 13.6619 4.12096L13.8112 4.57988C13.8576 4.7194 13.9359 4.84618 14.0399 4.95014C14.144 5.0541 14.2709 5.13238 14.4105 5.17876Z"
        fill="currentColor" />
</svg>