<svg width="32" height="31" viewBox="0 0 32 31" fill="none" xmlns="http://www.w3.org/2000/svg">
<path fill-rule="evenodd" clip-rule="evenodd" d="M31.3824 5.3789C31.4682 5.49738 31.5147 5.63984 31.5154 5.78621C31.5186 5.94026 31.4709 6.09105 31.3797 6.21515C31.2886 6.33925 31.159 6.42971 31.0112 6.47248L29.279 7.05516C28.7402 7.23505 28.2505 7.53816 27.8489 7.94046C27.4473 8.34275 27.1447 8.8332 26.9651 9.37295L26.3834 11.1081C26.331 11.2367 26.2415 11.3468 26.1264 11.4243C26.0113 11.5018 25.8757 11.5432 25.737 11.5432C25.5983 11.5432 25.4628 11.5018 25.3476 11.4243C25.2325 11.3468 25.1431 11.2367 25.0907 11.1081L24.509 9.37295C24.3294 8.8332 24.0268 8.34275 23.6251 7.94046C23.2235 7.53816 22.7339 7.23505 22.195 7.05516L20.4628 6.47248C20.3344 6.42 20.2245 6.33039 20.1471 6.21508C20.0697 6.09977 20.0284 5.96399 20.0284 5.82505C20.0284 5.68612 20.0697 5.55033 20.1471 5.43502C20.2245 5.31971 20.3344 5.2301 20.4628 5.17763L22.195 4.59494C22.7339 4.41505 23.2235 4.11195 23.6251 3.70965C24.0268 3.30735 24.3294 2.8169 24.509 2.27715L25.1165 0.54205C25.1689 0.413408 25.2584 0.303314 25.3735 0.225816C25.4886 0.148318 25.6242 0.106929 25.7629 0.106929C25.9016 0.106929 26.0371 0.148318 26.1523 0.225816C26.2674 0.303314 26.3568 0.413408 26.4092 0.54205L26.9909 2.27715C27.1773 2.80732 27.4829 3.28744 27.8842 3.68036C28.2854 4.07329 28.7715 4.3685 29.3049 4.54315L31.0371 5.12583C31.1758 5.17191 31.2966 5.26043 31.3824 5.3789Z" fill="currentColor"/>
<path fill-rule="evenodd" clip-rule="evenodd" d="M31.5639 14.4074C31.6011 14.4592 31.6213 14.5214 31.6216 14.5854C31.623 14.6528 31.6023 14.7187 31.5627 14.773C31.5231 14.8272 31.4669 14.8668 31.4027 14.8855L30.6505 15.1402C30.4165 15.2189 30.2039 15.3514 30.0295 15.5273C29.8551 15.7032 29.7237 15.9176 29.6457 16.1536L29.3931 16.9122C29.3704 16.9684 29.3315 17.0166 29.2815 17.0504C29.2315 17.0843 29.1727 17.1024 29.1124 17.1024C29.0522 17.1024 28.9933 17.0843 28.9433 17.0504C28.8934 17.0166 28.8545 16.9684 28.8318 16.9122L28.5792 16.1536C28.5012 15.9176 28.3698 15.7032 28.1954 15.5273C28.021 15.3514 27.8083 15.2189 27.5744 15.1402L26.8222 14.8855C26.7664 14.8625 26.7187 14.8234 26.6851 14.7729C26.6515 14.7225 26.6335 14.6632 26.6335 14.6024C26.6335 14.5417 26.6515 14.4823 26.6851 14.4319C26.7187 14.3815 26.7664 14.3423 26.8222 14.3194L27.5744 14.0646C27.8083 13.986 28.021 13.8534 28.1954 13.6776C28.3698 13.5017 28.5012 13.2872 28.5792 13.0513L28.843 12.2927C28.8657 12.2364 28.9046 12.1883 28.9546 12.1544C29.0046 12.1205 29.0634 12.1024 29.1237 12.1024C29.1839 12.1024 29.2427 12.1205 29.2927 12.1544C29.3427 12.1883 29.3816 12.2364 29.4043 12.2927L29.6569 13.0513C29.7379 13.283 29.8706 13.493 30.0448 13.6647C30.219 13.8365 30.4301 13.9656 30.6617 14.042L31.4139 14.2967C31.4741 14.3169 31.5266 14.3556 31.5639 14.4074Z" fill="currentColor"/>
<path fill-rule="evenodd" clip-rule="evenodd" d="M4.56999 18H0L0.07578 27H4.56999V31H5.56763V27H10.0521L9.97632 18H5.56763V11.6983H4.56999V18ZM8.05684 20H2.07104V25H8.05684V20Z" fill="currentColor"/>
<path fill-rule="evenodd" clip-rule="evenodd" d="M16.6104 10H11.9716V25H16.6104V27.2983H17.608V25H21.9479V10H17.608V5.56192H17.1092H16.6104V10ZM13.9668 23V12H19.9526V23H13.9668Z" fill="currentColor"/>
</svg>
