<svg width="32" height="32" viewBox="0 0 32 32" fill="none" xmlns="http://www.w3.org/2000/svg">
    <path fill-rule="evenodd" clip-rule="evenodd"
        d="M28 11.9091V27.5455C28 29.9555 25.9853 31.9091 23.5 31.9091H8.5C6.01472 31.9091 4 29.9555 4 27.5455V11.9091H7V27.5455C7 28.3488 7.67157 29 8.5 29H23.5C24.3284 29 25 28.3488 25 27.5455V11.9091H28Z"
        fill="currentColor" />
    <path fill-rule="evenodd" clip-rule="evenodd"
        d="M32 5.91101V8.90912H0V5.91101L7 5.90912V4.45458C7 2.04461 9.01472 0.0909424 11.5 0.0909424L20.5 0.0909367C22.9853 0.0909367 25 2.0446 25 4.45457V5.90912L32 5.91101ZM22 5.90912V4.45457C22 3.65125 21.3284 3.00003 20.5 3.00003L11.5 3.00003C10.6716 3.00003 10 3.65125 10 4.45458V5.91101L22 5.90912Z"
        fill="currentColor" />
</svg>
    