<svg width="32" height="32" viewBox="0 0 32 32" fill="none" xmlns="http://www.w3.org/2000/svg">
    <g clip-path="url(#clip0_235_46)">
        <path
            d="M6 11C6 10.4477 6.3731 10 6.83333 10H25.1667C25.6269 10 26 10.4477 26 11V13C26 13.5523 25.6269 14 25.1667 14H6.83333C6.3731 14 6 13.5523 6 13V11Z"
            fill="currentColor" />
        <path
            d="M6 19C6 18.4477 6.3731 18 6.83333 18H25.1667C25.6269 18 26 18.4477 26 19V21C26 21.5523 25.6269 22 25.1667 22H6.83333C6.3731 22 6 21.5523 6 21V19Z"
            fill="currentColor" />
    </g>
    <defs>
        <clipPath id="clip0_235_46">
            <rect width="32" height="32" fill="currentColor" />
        </clipPath>
    </defs>
</svg>
    