<svg width="32" height="32" viewBox="0 0 32 32" fill="none" xmlns="http://www.w3.org/2000/svg">
    <path
        d="M31.7826 16.4562C31.4999 16.0775 24.6727 7.23407 16 7.23407C15.1766 7.23589 14.3552 7.31446 13.5465 7.46876C13.4064 7.49201 13.2723 7.54301 13.1521 7.61877C13.032 7.69452 12.9282 7.79351 12.8468 7.90991C12.7654 8.02632 12.7081 8.15781 12.6782 8.29666C12.6484 8.43551 12.6465 8.57893 12.6728 8.71851C12.6991 8.85809 12.753 8.99102 12.8313 9.10949C12.9096 9.22796 13.0108 9.3296 13.129 9.40844C13.2471 9.48728 13.3798 9.54173 13.5193 9.5686C13.6588 9.59547 13.8022 9.59423 13.9412 9.56493C14.6198 9.43545 15.3091 9.36939 16 9.36758C22.3472 9.36758 27.857 15.1387 29.5531 17.1015C28.4607 18.3649 27.2634 19.5336 25.9741 20.5952C25.8652 20.6839 25.7749 20.7933 25.7084 20.917C25.6419 21.0407 25.6005 21.1764 25.5865 21.3161C25.5725 21.4559 25.5863 21.5971 25.6271 21.7315C25.6678 21.866 25.7347 21.991 25.8239 22.0996C25.9131 22.2081 26.0229 22.2979 26.1469 22.3639C26.2709 22.4299 26.4067 22.4707 26.5466 22.4841C26.6864 22.4974 26.8275 22.483 26.9618 22.4417C27.096 22.4004 27.2208 22.333 27.3289 22.2433C28.9681 20.906 30.461 19.3988 31.7826 17.7469C31.9236 17.5613 32 17.3346 32 17.1015C32 16.8684 31.9236 16.6418 31.7826 16.4562Z"
        fill="currentColor" />
    <path
        d="M24.7474 22.59L5.46581 3.30842C5.36564 3.20965 5.24701 3.13159 5.11668 3.07867C4.98634 3.02576 4.84686 2.99904 4.7062 3.00003C4.42212 3.00203 4.15047 3.1168 3.95102 3.31908C3.85225 3.41925 3.77419 3.53788 3.72127 3.66821C3.66836 3.79855 3.64164 3.93803 3.64263 4.07869C3.64463 4.36277 3.7594 4.63442 3.96168 4.83387L8.49005 9.36224C5.31451 11.1907 2.50875 13.5966 0.217377 16.4562C0.0763514 16.6418 0 16.8684 0 17.1015C0 17.3346 0.0763514 17.5613 0.217377 17.7469C0.500067 18.1256 7.32729 26.969 16 26.969C18.7637 26.9052 21.462 26.1161 23.8246 24.6808L28.2677 29.1399C28.3668 29.239 28.4844 29.3176 28.6139 29.3712C28.7434 29.4249 28.8822 29.4525 29.0224 29.4525C29.1626 29.4525 29.3014 29.4249 29.4309 29.3712C29.5604 29.3176 29.678 29.239 29.7771 29.1399C29.8762 29.0407 29.9549 28.9231 30.0085 28.7936C30.0621 28.6641 30.0897 28.5253 30.0897 28.3851C30.0897 28.245 30.0621 28.1062 30.0085 27.9767C29.9549 27.8472 29.8762 27.7295 29.7771 27.6304L24.7474 22.59ZM14.3039 15.1601L17.9468 18.803C17.714 19.0687 17.429 19.2838 17.1097 19.4349C16.7903 19.586 16.4434 19.67 16.0903 19.6816C15.7371 19.6932 15.3854 19.6323 15.0568 19.5024C14.7282 19.3726 14.4298 19.1767 14.18 18.9269C13.9301 18.6771 13.7343 18.3786 13.6044 18.0501C13.4746 17.7215 13.4136 17.3697 13.4252 17.0166C13.4369 16.6635 13.5208 16.3165 13.672 15.9972C13.8231 15.6778 14.0382 15.3929 14.3039 15.1601ZM16 24.8355C9.65282 24.8355 4.14303 19.0644 2.44689 17.1015C4.58479 14.5909 7.16671 12.4953 10.0635 10.9197L12.7997 13.6506C12.3243 14.0782 11.9408 14.5982 11.6729 15.1788C11.4049 15.7594 11.2579 16.3885 11.241 17.0278C11.2241 17.667 11.3375 18.3031 11.5744 18.897C11.8113 19.491 12.1666 20.0306 12.6188 20.4828C13.071 20.9349 13.6105 21.2903 14.2045 21.5272C14.7985 21.764 15.4345 21.8775 16.0738 21.8605C16.713 21.8436 17.3421 21.6967 17.9228 21.4287C18.5034 21.1607 19.0233 20.7773 19.451 20.3018L22.2618 23.1127C20.3484 24.1943 18.1974 24.7861 16 24.8355Z"
        fill="currentColor" />
</svg>
    