<svg width="32" height="32" viewBox="0 0 32 32" fill="none" xmlns="http://www.w3.org/2000/svg">
	<path
		d="M15.9993 4C9.38248 4 4.00027 9.38328 4.00027 16.0002C4.00027 22.617 9.38248 28 15.9993 28C22.6163 28 27.9995 22.6168 27.9995 16.0002C27.9995 9.38328 22.6163 4 15.9993 4ZM15.9993 25.4595C10.7837 25.4595 6.54091 21.2158 6.54091 16.0002C6.54091 10.7845 10.7837 6.54059 15.9993 6.54059C21.2151 6.54059 25.4588 10.7845 25.4588 16.0002C25.4588 21.2158 21.215 25.4595 15.9993 25.4595Z"
		fill="currentColor" />
	<path
		d="M17.2177 14.8347H14.7815C14.3727 14.8347 14.0409 15.1666 14.0409 15.5747V22.7978C14.0409 23.2065 14.3727 23.5378 14.7815 23.5378H17.2177C17.6265 23.5378 17.9583 23.2064 17.9583 22.7978V15.5747C17.9583 15.1666 17.6265 14.8347 17.2177 14.8347Z"
		fill="currentColor" />
	<path
		d="M15.9995 8.46246C14.8012 8.46246 13.8293 9.43432 13.8293 10.6326C13.8293 11.831 14.8012 12.803 15.9995 12.803C17.198 12.803 18.1699 11.8311 18.1699 10.6326C18.1698 9.43432 17.198 8.46246 15.9995 8.46246Z"
		fill="currentColor" />
</svg>
	