<svg width="32" height="32" viewBox="0 0 32 32" fill="none" xmlns="http://www.w3.org/2000/svg">
    <circle cx="16" cy="16" r="15" stroke="currentColor" stroke-width="2" />
    <path
        d="M23 16C23 20.2967 22.1271 24.1372 20.7624 26.8665C19.3679 29.6556 17.6263 31 16 31C14.3737 31 12.6321 29.6556 11.2376 26.8665C9.87292 24.1372 9 20.2967 9 16C9 11.7033 9.87292 7.86282 11.2376 5.1335C12.6321 2.34438 14.3737 1 16 1C17.6263 1 19.3679 2.34438 20.7624 5.1335C22.1271 7.86282 23 11.7033 23 16Z"
        stroke="currentColor" stroke-width="2" />
    <path
        d="M16 9C20.2967 9 24.1372 9.87292 26.8665 11.2376C29.6556 12.6321 31 14.3737 31 16C31 17.6263 29.6556 19.3679 26.8665 20.7624C24.1372 22.1271 20.2967 23 16 23C11.7033 23 7.86282 22.1271 5.1335 20.7624C2.34438 19.3679 1 17.6263 1 16C1 14.3737 2.34438 12.6321 5.1335 11.2376C7.86282 9.87292 11.7033 9 16 9Z"
        stroke="currentColor" stroke-width="2" />
    <rect x="15" width="2" height="32" fill="currentColor" />
    <rect y="17" width="2" height="32" transform="rotate(-90 0 17)" fill="currentColor" />
</svg>
    