<svg width="32" height="32" viewBox="0 0 32 32" fill="none" xmlns="http://www.w3.org/2000/svg">
    <g clip-path="url(#clip0_235_37)">
        <path
            d="M4 7C4 6.44772 4.44772 6 5 6H27C27.5523 6 28 6.44772 28 7V9C28 9.55228 27.5523 10 27 10H5C4.44772 10 4 9.55228 4 9V7Z"
            fill="currentColor" />
        <path
            d="M4 23C4 22.4477 4.44772 22 5 22H27C27.5523 22 28 22.4477 28 23V25C28 25.5523 27.5523 26 27 26H5C4.44772 26 4 25.5523 4 25V23Z"
            fill="currentColor" />
        <path
            d="M4 15C4 14.4477 4.44772 14 5 14H27C27.5523 14 28 14.4477 28 15V17C28 17.5523 27.5523 18 27 18H5C4.44772 18 4 17.5523 4 17V15Z"
            fill="currentColor" />
    </g>
    <defs>
        <clipPath id="clip0_235_37">
            <rect width="32" height="32" fill="currentColor" />
        </clipPath>
    </defs>
</svg>
    