<svg width="101" height="120" viewBox="0 0 101 120" fill="none" xmlns="http://www.w3.org/2000/svg">
    <path d="M25.4557 31.8746C26.009 31.8746 24.9503 32.0246 25.4557 31.8746Z"
        fill="url(#paint0_linear_481_985)" />
    <path d="M75.0553 31.8746C74.502 31.8746 75.5606 32.0246 75.0553 31.8746Z"
        fill="url(#paint1_linear_481_985)" />
    <path fill-rule="evenodd" clip-rule="evenodd"
        d="M35.1342 56.752C38.2544 56.752 40.7839 59.3109 40.7839 62.4674C40.7839 63.9469 40.2282 65.2952 39.3163 66.3101L50.2568 104.047L61.196 66.3101C60.2843 65.2952 59.7286 63.9469 59.7286 62.4674C59.7286 59.3109 62.2578 56.752 65.3777 56.752C66.7948 56.752 68.0899 57.2799 69.0816 58.1519C74.9372 55.5693 80.0119 51.3517 84.3011 46.154L75.0553 31.8746C72.7111 31.1787 70.9994 28.9864 70.9994 26.3897C70.9994 23.2332 73.5286 20.6743 76.6485 20.6743C76.9583 20.6743 77.1812 20.7122 77.4719 20.7616L77.5033 20.7669L92.9349 5.65951L98.6538 0C102.963 20.2356 99.3726 35.4738 91.9117 46.444L95.2886 51.6187C95.6053 52.1594 95.8415 52.8831 95.8415 53.5621C95.8415 54.4553 95.4909 55.3135 94.9689 55.9402L79.2842 72.1842C79.3806 72.5997 79.4316 73.0328 79.4316 73.4777C79.4316 75.4187 78.4619 77.1331 76.9809 78.1621L77.7228 85.0602C79.8614 85.8805 81.3797 87.9544 81.3797 90.3833C81.3797 93.5305 78.8303 96.0819 75.6854 96.0819C75.2096 96.0819 74.7474 96.0235 74.3057 95.9135L50.2568 120L26.2053 95.9135C25.7635 96.0235 25.3013 96.0819 24.8255 96.0819C21.6803 96.0819 19.1306 93.5305 19.1306 90.3833C19.1306 87.9544 20.6491 85.8805 22.7879 85.0602L23.5299 78.1621C22.0487 77.1331 21.0789 75.4187 21.0789 73.4777C21.0789 73.0328 21.1299 72.5997 21.2263 72.1842L5.53999 55.9402C5.01797 55.3135 4.66725 54.4553 4.66725 53.5621C4.66725 52.8831 4.9035 52.1594 5.22028 51.6187L8.59751 46.444C1.13583 35.4738 -2.45453 20.2356 1.85469 0L7.57423 5.65951L23.0074 20.7669L23.0388 20.7616C23.3295 20.7122 23.5524 20.6743 23.8623 20.6743C26.9825 20.6743 29.5119 23.2332 29.5119 26.3897C29.5119 28.9864 27.8001 31.1787 25.4557 31.8746L16.2089 46.154C20.4985 51.3517 25.5738 55.5693 31.4299 58.1519C32.4217 57.2799 33.717 56.752 35.1342 56.752ZM32.4686 73.4777C32.4686 70.3304 29.9189 67.7791 26.7738 67.7791C26.4103 67.7791 26.0548 67.8131 25.7103 67.8782L11.5882 53.2556L12.6702 51.6187C17.6953 57.1702 23.4762 61.6443 29.8676 64.5404C30.4696 66.1045 31.7328 67.3342 33.3099 67.8782L43.9731 104.547L30.4381 91.3535C30.4921 91.0382 30.5203 90.714 30.5203 90.3833C30.5203 88.8334 29.902 87.4281 28.8989 86.4008L29.7459 78.3396C31.3791 77.3378 32.4686 75.5351 32.4686 73.4777ZM18.3972 24.9351C18.2767 25.3995 18.2126 25.887 18.2126 26.3897C18.2126 27.688 18.6405 28.8853 19.3616 29.8449L12.3712 40.6246C8.1963 33.395 5.90775 24.3119 6.61403 13.3952L18.3972 24.9351ZM35.149 65.5837C36.8657 65.5837 38.2574 64.192 38.2574 62.4753C38.2574 60.7586 36.8657 59.367 35.149 59.367C33.4323 59.367 32.0407 60.7586 32.0407 62.4753C32.0407 64.192 33.4323 65.5837 35.149 65.5837ZM26.6668 76.6061C28.3835 76.6061 29.7752 75.2144 29.7752 73.4977C29.7752 71.781 28.3835 70.3894 26.6668 70.3894C24.9501 70.3894 23.5585 71.781 23.5585 73.4977C23.5585 75.2144 24.9501 76.6061 26.6668 76.6061ZM23.7877 29.4294C25.5044 29.4294 26.896 28.0377 26.896 26.321C26.896 24.6043 25.5044 23.2127 23.7877 23.2127C22.071 23.2127 20.6793 24.6043 20.6793 26.321C20.6793 28.0377 22.071 29.4294 23.7877 29.4294ZM24.8299 93.4667C26.5465 93.4667 27.9382 92.0751 27.9382 90.3584C27.9382 88.6417 26.5465 87.25 24.8299 87.25C23.1132 87.25 21.7215 88.6417 21.7215 90.3584C21.7215 92.0751 23.1132 93.4667 24.8299 93.4667ZM68.0431 73.4777C68.0431 70.3304 70.5925 67.7791 73.7373 67.7791C74.1007 67.7791 74.4562 67.8131 74.8006 67.8782L88.9213 53.2556L87.8394 51.6187C82.8148 57.1702 77.0345 61.6443 70.6438 64.5404C70.0418 66.1045 68.7787 67.3342 67.2018 67.8782L56.5397 104.547L70.0734 91.3535C70.0193 91.0382 69.9912 90.714 69.9912 90.3833C69.9912 88.8334 70.6094 87.4281 71.6124 86.4008L70.7655 78.3396C69.1325 77.3378 68.0431 75.5351 68.0431 73.4777ZM82.113 24.9351C82.2335 25.3995 82.2976 25.887 82.2976 26.3897C82.2976 27.688 81.8697 28.8853 81.1488 29.8449L88.1384 40.6246C92.3129 33.395 94.6012 24.3119 93.895 13.3952L82.113 24.9351ZM65.3629 65.5837C63.6464 65.5837 62.2549 64.192 62.2549 62.4753C62.2549 60.7586 63.6464 59.367 65.3629 59.367C67.0794 59.367 68.4709 60.7586 68.4709 62.4753C68.4709 64.192 67.0794 65.5837 65.3629 65.5837ZM73.8442 76.6061C72.1277 76.6061 70.7362 75.2144 70.7362 73.4977C70.7362 71.781 72.1277 70.3894 73.8442 70.3894C75.5607 70.3894 76.9522 71.781 76.9522 73.4977C76.9522 75.2144 75.5607 76.6061 73.8442 76.6061ZM76.7231 29.4294C75.0066 29.4294 73.6151 28.0377 73.6151 26.321C73.6151 24.6043 75.0066 23.2127 76.7231 23.2127C78.4396 23.2127 79.8311 24.6043 79.8311 26.321C79.8311 28.0377 78.4396 29.4294 76.7231 29.4294ZM75.681 93.4667C73.9645 93.4667 72.573 92.0751 72.573 90.3584C72.573 88.6417 73.9645 87.25 75.681 87.25C77.3975 87.25 78.789 88.6417 78.789 90.3584C78.789 92.0751 77.3975 93.4667 75.681 93.4667Z"
        fill="url(#paint2_linear_481_985)" />
    <defs>
        <linearGradient id="paint0_linear_481_985" x1="88.4774" y1="-4.26262" x2="17.5349"
            y2="105.263" gradientUnits="userSpaceOnUse">
            <stop stop-color="#E4003C" />
            <stop offset="1" stop-color="#3C398D" />
        </linearGradient>
        <linearGradient id="paint1_linear_481_985" x1="88.4774" y1="-4.26262" x2="17.5349"
            y2="105.263" gradientUnits="userSpaceOnUse">
            <stop stop-color="#E4003C" />
            <stop offset="1" stop-color="#3C398D" />
        </linearGradient>
        <linearGradient id="paint2_linear_481_985" x1="88.4774" y1="-4.26262" x2="17.5349"
            y2="105.263" gradientUnits="userSpaceOnUse">
            <stop stop-color="#E4003C" />
            <stop offset="1" stop-color="#3C398D" />
        </linearGradient>
    </defs>
</svg>
    