<svg width="132" height="158" viewBox="0 0 132 158" fill="none" xmlns="http://www.w3.org/2000/svg">
    <path
        d="M3.05278 5L4.45688 3.57574L1.63839 0.797154L1.07327 4.71443L3.05278 5ZM65.738 155L64.2862 156.376L65.738 157.908L67.1899 156.376L65.738 155ZM30.1491 95.2766C30.9081 96.079 32.174 96.1142 32.9764 95.3552C33.7789 94.5961 33.814 93.3303 33.055 92.5278L30.1491 95.2766ZM31.055 37.5077C31.6509 36.5776 31.3801 35.3406 30.4501 34.7447C29.5201 34.1487 28.283 34.4195 27.6871 35.3495L31.055 37.5077ZM128.423 5.00002L130.403 4.71444L129.838 0.797172L127.019 3.57576L128.423 5.00002ZM98.4259 92.533C97.667 93.3356 97.7025 94.6014 98.5051 95.3603C99.3077 96.1192 100.574 96.0837 101.332 95.2811L98.4259 92.533ZM103.789 35.3495C103.193 34.4195 101.956 34.1487 101.026 34.7446C100.096 35.3406 99.8251 36.5776 100.421 37.5076L103.789 35.3495ZM122.622 69.8539L124.076 71.228L122.622 69.8539ZM122.738 68.6273L121.054 69.7064L122.738 68.6273ZM8.85391 69.8539L7.40097 71.2283L8.85391 69.8539ZM8.74094 68.6233L7.05701 67.5442L7.05701 67.5442L8.74094 68.6233ZM31.4129 32.4873C31.4129 33.4048 30.6628 34.1651 29.7171 34.1651V38.1651C32.8536 38.1651 35.4129 35.6322 35.4129 32.4873H31.4129ZM29.7171 34.1651C28.7714 34.1651 28.0214 33.4048 28.0214 32.4873H24.0214C24.0214 35.6322 26.5807 38.1651 29.7171 38.1651V34.1651ZM28.0214 32.4873C28.0214 31.5699 28.7714 30.8096 29.7171 30.8096V26.8096C26.5807 26.8096 24.0214 29.3424 24.0214 32.4873H28.0214ZM29.7171 30.8096C30.6628 30.8096 31.4129 31.5699 31.4129 32.4873H35.4129C35.4129 29.3424 32.8536 26.8096 29.7171 26.8096V30.8096ZM47.2038 81.5349C47.2038 82.4524 46.4538 83.2127 45.5081 83.2127V87.2127C48.6445 87.2127 51.2038 84.6799 51.2038 81.5349H47.2038ZM45.5081 83.2127C44.5624 83.2127 43.8124 82.4524 43.8124 81.5349H39.8124C39.8124 84.6799 42.3716 87.2127 45.5081 87.2127V83.2127ZM43.8124 81.5349C43.8124 80.6175 44.5624 79.8572 45.5081 79.8572V75.8572C42.3716 75.8572 39.8124 78.39 39.8124 81.5349H43.8124ZM45.5081 79.8572C46.4538 79.8572 47.2038 80.6175 47.2038 81.5349H51.2038C51.2038 78.39 48.6445 75.8572 45.5081 75.8572V79.8572ZM35.8519 96.5603C35.8519 97.4778 35.1019 98.2381 34.1562 98.2381V102.238C37.2926 102.238 39.8519 99.7053 39.8519 96.5603H35.8519ZM34.1562 98.2381C33.2104 98.2381 32.4604 97.4778 32.4604 96.5603H28.4604C28.4604 99.7053 31.0197 102.238 34.1562 102.238V98.2381ZM32.4604 96.5603C32.4604 95.6429 33.2104 94.8826 34.1562 94.8826V90.8826C31.0197 90.8826 28.4604 93.4154 28.4604 96.5603H32.4604ZM34.1562 94.8826C35.1019 94.8826 35.8519 95.6429 35.8519 96.5603H39.8519C39.8519 93.4154 37.2926 90.8826 34.1562 90.8826V94.8826ZM33.3269 119.63C33.3269 120.548 32.5769 121.308 31.6312 121.308V125.308C34.7677 125.308 37.3269 122.775 37.3269 119.63H33.3269ZM31.6312 121.308C30.6855 121.308 29.9355 120.548 29.9355 119.63H25.9355C25.9355 122.775 28.4947 125.308 31.6312 125.308V121.308ZM29.9355 119.63C29.9355 118.713 30.6855 117.952 31.6312 117.952V113.952C28.4947 113.952 25.9355 116.485 25.9355 119.63H29.9355ZM31.6312 117.952C32.5769 117.952 33.3269 118.713 33.3269 119.63H37.3269C37.3269 116.485 34.7677 113.952 31.6312 113.952V117.952ZM43.936 79.0739C35.132 75.8463 23.7173 69.0948 15.359 57.352C7.03545 45.6583 1.63102 28.8622 5.03228 5.28557L1.07327 4.71443C-2.46391 29.2331 3.13747 47.0798 12.1002 59.6716C21.028 72.2144 33.1801 79.3911 42.5592 82.8295L43.936 79.0739ZM1.64868 6.42426L27.2491 31.6624L30.0573 28.8139L4.45688 3.57574L1.64868 6.42426ZM44.4924 85.6326L63.8103 155.533L67.6658 154.467L48.3479 84.5671L44.4924 85.6326ZM32.7043 123.042L64.2862 156.376L67.1899 153.624L35.608 120.291L32.7043 123.042ZM34.7136 117.548L36.1492 100.405L32.1631 100.071L30.7276 117.214L34.7136 117.548ZM7.40097 71.2283L30.1491 95.2766L33.055 92.5278L10.3069 68.4795L7.40097 71.2283ZM10.4249 69.7023C18.3837 57.2821 22.9752 50.1167 31.055 37.5077L27.6871 35.3495C19.6073 47.9586 15.0158 55.124 7.05701 67.5442L10.4249 69.7023ZM96.0631 32.4874C96.0631 35.6323 98.6224 38.1651 101.759 38.1651V34.1651C100.813 34.1651 100.063 33.4048 100.063 32.4874H96.0631ZM101.759 38.1651C104.895 38.1651 107.455 35.6323 107.455 32.4874H103.455C103.455 33.4048 102.705 34.1651 101.759 34.1651V38.1651ZM107.455 32.4874C107.455 29.3425 104.895 26.8096 101.759 26.8096V30.8096C102.705 30.8096 103.455 31.5699 103.455 32.4874H107.455ZM101.759 26.8096C98.6224 26.8096 96.0631 29.3425 96.0631 32.4874H100.063C100.063 31.5699 100.813 30.8096 101.759 30.8096V26.8096ZM80.2722 81.5349C80.2722 84.6798 82.8315 87.2127 85.968 87.2127V83.2127C85.0223 83.2127 84.2722 82.4524 84.2722 81.5349H80.2722ZM85.968 87.2127C89.1044 87.2127 91.6637 84.6798 91.6637 81.5349H87.6637C87.6637 82.4524 86.9137 83.2127 85.968 83.2127V87.2127ZM91.6637 81.5349C91.6637 78.39 89.1044 75.8571 85.968 75.8571V79.8571C86.9137 79.8571 87.6637 80.6175 87.6637 81.5349H91.6637ZM85.968 75.8571C82.8315 75.8571 80.2722 78.39 80.2722 81.5349H84.2722C84.2722 80.6175 85.0223 79.8571 85.968 79.8571V75.8571ZM91.6242 96.5603C91.6242 99.7052 94.1834 102.238 97.3199 102.238V98.238C96.3742 98.238 95.6242 97.4777 95.6242 96.5603H91.6242ZM97.3199 102.238C100.456 102.238 103.016 99.7052 103.016 96.5603H99.0156C99.0156 97.4777 98.2656 98.238 97.3199 98.238V102.238ZM103.016 96.5603C103.016 93.4153 100.456 90.8825 97.3199 90.8825V94.8825C98.2656 94.8825 99.0156 95.6428 99.0156 96.5603H103.016ZM97.3199 90.8825C94.1834 90.8825 91.6242 93.4153 91.6242 96.5603H95.6242C95.6242 95.6428 96.3742 94.8825 97.3199 94.8825V90.8825ZM94.1491 119.63C94.1491 122.775 96.7084 125.308 99.8448 125.308V121.308C98.8991 121.308 98.1491 120.548 98.1491 119.63H94.1491ZM99.8448 125.308C102.981 125.308 105.541 122.775 105.541 119.63H101.541C101.541 120.548 100.791 121.308 99.8448 121.308V125.308ZM105.541 119.63C105.541 116.485 102.981 113.952 99.8448 113.952V117.952C100.791 117.952 101.541 118.713 101.541 119.63H105.541ZM99.8448 113.952C96.7084 113.952 94.1491 116.485 94.1491 119.63H98.1491C98.1491 118.713 98.8991 117.952 99.8448 117.952V113.952ZM88.9168 82.8295C98.296 79.3911 110.448 72.2144 119.376 59.6716C128.339 47.0798 133.94 29.2331 130.403 4.71444L126.444 5.28559C129.845 28.8622 124.441 45.6583 116.117 57.3521C107.759 69.0948 96.3441 75.8463 87.54 79.0739L88.9168 82.8295ZM127.019 3.57576L101.419 28.8139L104.227 31.6624L129.827 6.42427L127.019 3.57576ZM83.1028 84.5613L63.8101 154.468L67.6659 155.532L86.9587 85.6255L83.1028 84.5613ZM95.8681 120.291L64.2862 153.624L67.1899 156.376L98.7717 123.042L95.8681 120.291ZM100.748 117.214L99.3129 100.071L95.3269 100.405L96.7624 117.548L100.748 117.214ZM121.169 68.4798L98.4259 92.533L101.332 95.2811L124.076 71.228L121.169 68.4798ZM124.422 67.5483L103.789 35.3495L100.421 37.5076L121.054 69.7064L124.422 67.5483ZM124.076 71.228C125.022 70.2265 125.165 68.7087 124.422 67.5483L121.054 69.7064C120.806 69.3196 120.853 68.8136 121.169 68.4798L124.076 71.228ZM10.3069 68.4795C10.6303 68.8215 10.6667 69.3249 10.4249 69.7023L7.05701 67.5442C6.31933 68.6954 6.44601 70.2188 7.40097 71.2283L10.3069 68.4795Z"
        fill="currentColor" />
</svg>
    