<svg width="32" height="32" viewBox="0 0 32 32" fill="none" xmlns="http://www.w3.org/2000/svg">
    <path fill-rule="evenodd" clip-rule="evenodd"
        d="M17.6214 0.938841C17.3186 1.62191 17.5576 2.41746 18.1914 2.83568C20.7349 4.51397 22.4 7.33979 22.4 10.5424C22.4 15.6857 18.1019 19.8551 12.8 19.8551C8.15984 19.8551 4.28528 16.6598 3.39344 12.4127C3.24016 11.6829 2.57408 11.1616 1.8064 11.1705C1.03872 11.1794 0.38576 11.716 0.25056 12.4492C0.0857598 13.3427 7.15256e-07 14.2616 7.15256e-07 15.1988C7.15256e-07 23.771 7.16336 30.72 16 30.72C24.8366 30.72 32 23.771 32 15.1988C32 7.76842 26.6195 1.5609 19.4331 0.0360166C18.6843 -0.122874 17.9245 0.255766 17.6214 0.938841Z"
        fill="currentColor" />
</svg>