<svg width="32" height="32" viewBox="0 0 32 32" fill="none" xmlns="http://www.w3.org/2000/svg">
    <path fill-rule="evenodd" clip-rule="evenodd"
        d="M2.47059 6.10352e-05C1.10612 6.10352e-05 0 1.10915 0 2.47727V9.50012C0 10.8682 1.10612 11.9773 2.47059 11.9773L12.5294 11.9773C13.8939 11.9773 15 10.8682 15 9.50006V2.47721C15 1.10909 13.8939 0 12.5294 0L2.47059 6.10352e-05ZM12 3.00804L3 3.0081V8.99878L12 8.99872V3.00804Z"
        fill="currentColor" />
    <path fill-rule="evenodd" clip-rule="evenodd"
        d="M2.47059 14.1621C1.10612 14.1621 0 15.27 0 16.6367V29.5255C0 30.8922 1.10612 32.0002 2.47059 32.0002L12.5294 32C13.8939 32 15 30.8921 15 29.5254V16.6366C15 15.2699 13.8939 14.1619 12.5294 14.1619L2.47059 14.1621ZM12 17.1668L3 17.167V29.0247L12 29.0245V17.1668Z"
        fill="currentColor" />
    <path fill-rule="evenodd" clip-rule="evenodd"
        d="M19.5 32C18.1355 32 17.0294 30.7901 17.0294 29.2976V22.5001C17.0294 21.0076 18.1355 19.7976 19.5 19.7976L29.5294 19.7977C30.8939 19.7977 32 21.0076 32 22.5001V29.2976C32 30.7901 30.8939 32.0001 29.5294 32.0001L19.5 32ZM29 28.7186L20.0294 28.7185V23.047L29 23.047V28.7186Z"
        fill="currentColor" />
    <path fill-rule="evenodd" clip-rule="evenodd"
        d="M19.5 17.8381C18.1355 17.8381 17.0294 16.7917 17.0294 15.5009V2.33721C17.0294 1.04644 18.1355 6.12438e-05 19.5 6.12438e-05H29.5294C30.8939 6.12438e-05 32 1.04644 32 2.33721V15.5009C32 16.7917 30.8939 17.8381 29.5294 17.8381H19.5ZM29 15.0001H20.0294V2.81021H29V15.0001Z"
        fill="currentColor" />
</svg>
    