<svg width="32" height="32" viewBox="0 0 32 32" fill="none" xmlns="http://www.w3.org/2000/svg">
    <path fill-rule="evenodd" clip-rule="evenodd"
        d="M0 5.87817C0 3.20656 2.11613 1.04079 4.72652 1.04079H12.2889V3.94322H4.72652C3.68236 3.94322 2.83591 4.80953 2.83591 5.87817V27.1626C2.83591 28.2313 3.68236 29.0976 4.72652 29.0976H25.5232C26.5673 29.0976 27.4138 28.2313 27.4138 27.1626V19.4228H30.2497V27.1626C30.2497 29.8342 28.1336 32 25.5232 32H4.72652C2.11613 32 0 29.8342 0 27.1626V5.87817Z"
        fill="currentColor" />
    <path fill-rule="evenodd" clip-rule="evenodd"
        d="M16.9862 24.128H7.43145V14.7609L22.4452 0L32 9.36715L16.9862 24.128ZM22.3733 4.34518L27.6281 9.49683L15.8889 21.0056H10.6164V15.8713L22.3733 4.34518Z"
        fill="currentColor" />
</svg>
    