<svg width="353" height="363" viewBox="0 0 353 363" fill="none" xmlns="http://www.w3.org/2000/svg">
    <rect width="353" height="363" rx="12" fill="white" />
    <path fill-rule="evenodd" clip-rule="evenodd"
        d="M21 41C21 32.7157 27.7157 26 36 26H101C103.761 26 106 28.2386 106 31C106 33.7614 103.761 36 101 36H36C33.2386 36 31 38.2386 31 41V106C31 108.761 28.7614 111 26 111C23.2386 111 21 108.761 21 106V41ZM246 31C246 28.2386 248.239 26 251 26H316C324.284 26 331 32.7157 331 41V106C331 108.761 328.761 111 326 111C323.239 111 321 108.761 321 106V41C321 38.2386 318.761 36 316 36H251C248.239 36 246 33.7614 246 31ZM26 251C28.7614 251 31 253.239 31 256V321C31 323.761 33.2386 326 36 326H101C103.761 326 106 328.239 106 331C106 333.761 103.761 336 101 336H36C27.7157 336 21 329.284 21 321V256C21 253.239 23.2386 251 26 251ZM326 251C328.761 251 331 253.239 331 256V321C331 329.284 324.284 336 316 336H251C248.239 336 246 333.761 246 331C246 328.239 248.239 326 251 326H316C318.761 326 321 323.761 321 321V256C321 253.239 323.239 251 326 251Z"
        fill="url(#paint0_linear_0_1)" />
    <path fill-rule="evenodd" clip-rule="evenodd" d="M91 66H61V96H91V66ZM51 56V106H101V56H51Z"
        fill="url(#paint1_linear_0_1)" />
    <path fill-rule="evenodd" clip-rule="evenodd" d="M91 266H61V296H91V266ZM51 256V306H101V256H51Z"
        fill="url(#paint2_linear_0_1)" />
    <path fill-rule="evenodd" clip-rule="evenodd" d="M291 66H261V96H291V66ZM251 56V106H301V56H251Z"
        fill="url(#paint3_linear_0_1)" />
    <path fill-rule="evenodd" clip-rule="evenodd" d="M276 231V281H301V231H276Z"
        fill="url(#paint4_linear_0_1)" />
    <path fill-rule="evenodd" clip-rule="evenodd" d="M251 281V306H276V281H251Z"
        fill="url(#paint5_linear_0_1)" />
    <path fill-rule="evenodd" clip-rule="evenodd" d="M201 256V281H251V256H201Z"
        fill="url(#paint6_linear_0_1)" />
    <path d="M145.289 145.843C145.981 145.843 144.657 146.031 145.289 145.843Z"
        fill="url(#paint7_linear_0_1)" />
    <path d="M207.289 145.843C207.92 146.031 206.597 145.843 207.289 145.843Z"
        fill="url(#paint8_linear_0_1)" />
    <path fill-rule="evenodd" clip-rule="evenodd"
        d="M156.918 176.94C160.818 176.94 163.98 180.139 163.98 184.084C163.98 185.934 163.285 187.619 162.146 188.888L175.821 236.059L189.495 188.888C188.355 187.619 187.661 185.934 187.661 184.084C187.661 180.139 190.822 176.94 194.722 176.94C196.494 176.94 198.112 177.6 199.352 178.69C206.672 175.462 213.015 170.189 218.376 163.692L206.819 145.843C203.889 144.973 201.749 142.233 201.749 138.987C201.749 135.041 204.911 131.843 208.81 131.843C209.198 131.843 209.477 131.89 209.84 131.952L209.879 131.959L229.169 113.074L236.317 106C241.703 131.294 237.216 150.342 227.89 164.055L232.111 170.523C232.507 171.199 232.802 172.104 232.802 172.953C232.802 174.069 232.364 175.142 231.711 175.925L212.105 196.23C212.226 196.75 212.29 197.291 212.29 197.847C212.29 200.273 211.077 202.416 209.226 203.703L210.154 212.325C212.827 213.351 214.725 215.943 214.725 218.979C214.725 222.913 211.538 226.103 207.607 226.103C207.012 226.103 206.434 226.029 205.882 225.892L175.821 256L145.757 225.892C145.204 226.029 144.627 226.103 144.032 226.103C140.1 226.103 136.913 222.913 136.913 218.979C136.913 215.943 138.811 213.351 141.485 212.325L142.412 203.703C140.561 202.416 139.349 200.273 139.349 197.847C139.349 197.291 139.412 196.75 139.533 196.23L119.925 175.925C119.272 175.142 118.834 174.069 118.834 172.953C118.834 172.104 119.129 171.199 119.525 170.523L123.747 164.055C114.42 150.342 109.932 131.294 115.318 106L122.468 113.074L141.759 131.959L141.799 131.952C142.162 131.89 142.441 131.843 142.828 131.843C146.728 131.843 149.89 135.041 149.89 138.987C149.89 142.233 147.75 144.973 144.82 145.843L133.261 163.692C138.623 170.189 144.967 175.462 152.287 178.69C153.527 177.6 155.146 176.94 156.918 176.94ZM153.586 197.847C153.586 193.913 150.399 190.724 146.467 190.724C146.013 190.724 145.569 190.766 145.138 190.848L127.485 172.569L128.838 170.523C135.119 177.463 142.345 183.055 150.335 186.676C151.087 188.631 152.666 190.168 154.637 190.848L167.966 236.683L151.048 220.192C151.115 219.798 151.15 219.392 151.15 218.979C151.15 217.042 150.378 215.285 149.124 214.001L150.182 203.925C152.224 202.672 153.586 200.419 153.586 197.847ZM135.996 137.169C135.846 137.749 135.766 138.359 135.766 138.987C135.766 140.61 136.301 142.107 137.202 143.306L128.464 156.781C123.245 147.744 120.385 136.39 121.268 122.744L135.996 137.169ZM156.936 187.98C159.082 187.98 160.822 186.24 160.822 184.094C160.822 181.948 159.082 180.209 156.936 180.209C154.79 180.209 153.051 181.948 153.051 184.094C153.051 186.24 154.79 187.98 156.936 187.98ZM146.334 201.758C148.479 201.758 150.219 200.018 150.219 197.872C150.219 195.726 148.479 193.987 146.334 193.987C144.188 193.987 142.448 195.726 142.448 197.872C142.448 200.018 144.188 201.758 146.334 201.758ZM142.735 142.787C144.88 142.787 146.62 141.047 146.62 138.901C146.62 136.755 144.88 135.016 142.735 135.016C140.589 135.016 138.849 136.755 138.849 138.901C138.849 141.047 140.589 142.787 142.735 142.787ZM144.037 222.833C146.183 222.833 147.923 221.094 147.923 218.948C147.923 216.802 146.183 215.062 144.037 215.062C141.891 215.062 140.152 216.802 140.152 218.948C140.152 221.094 141.891 222.833 144.037 222.833ZM198.054 197.847C198.054 193.913 201.24 190.724 205.172 190.724C205.626 190.724 206.07 190.766 206.501 190.848L224.152 172.569L222.799 170.523C216.518 177.463 209.293 183.055 201.305 186.676C200.552 188.631 198.973 190.168 197.002 190.848L183.675 236.683L200.592 220.192C200.524 219.798 200.489 219.392 200.489 218.979C200.489 217.042 201.262 215.285 202.516 214.001L201.457 203.925C199.416 202.672 198.054 200.419 198.054 197.847ZM215.641 137.169C215.792 137.749 215.872 138.359 215.872 138.987C215.872 140.61 215.337 142.107 214.436 143.306L223.173 156.781C228.391 147.744 231.251 136.39 230.369 122.744L215.641 137.169ZM194.704 187.98C192.558 187.98 190.819 186.24 190.819 184.094C190.819 181.948 192.558 180.209 194.704 180.209C196.849 180.209 198.589 181.948 198.589 184.094C198.589 186.24 196.849 187.98 194.704 187.98ZM205.305 201.758C203.16 201.758 201.42 200.018 201.42 197.872C201.42 195.726 203.16 193.987 205.305 193.987C207.451 193.987 209.19 195.726 209.19 197.872C209.19 200.018 207.451 201.758 205.305 201.758ZM208.904 142.787C206.758 142.787 205.019 141.047 205.019 138.901C205.019 136.755 206.758 135.016 208.904 135.016C211.049 135.016 212.789 136.755 212.789 138.901C212.789 141.047 211.049 142.787 208.904 142.787ZM207.601 222.833C205.456 222.833 203.716 221.094 203.716 218.948C203.716 216.802 205.456 215.062 207.601 215.062C209.747 215.062 211.486 216.802 211.486 218.948C211.486 221.094 209.747 222.833 207.601 222.833Z"
        fill="url(#paint9_linear_0_1)" />
    <defs>
        <linearGradient id="paint0_linear_0_1" x1="26" y1="331" x2="326" y2="31"
            gradientUnits="userSpaceOnUse">
            <stop stop-color="#3C398D" />
            <stop offset="1" stop-color="#E4003C" />
        </linearGradient>
        <linearGradient id="paint1_linear_0_1" x1="-164.326" y1="1624.8" x2="1620.81" y2="-430.761"
            gradientUnits="userSpaceOnUse">
            <stop stop-color="#3C398D" />
            <stop offset="1" stop-color="#E4003C" />
        </linearGradient>
        <linearGradient id="paint2_linear_0_1" x1="-168.1" y1="540.6" x2="1426.53" y2="-1666.04"
            gradientUnits="userSpaceOnUse">
            <stop stop-color="#3C398D" />
            <stop offset="1" stop-color="#E4003C" />
        </linearGradient>
        <linearGradient id="paint3_linear_0_1" x1="-1417.4" y1="1774.4" x2="166.014" y2="-405.631"
            gradientUnits="userSpaceOnUse">
            <stop stop-color="#3C398D" />
            <stop offset="1" stop-color="#E4003C" />
        </linearGradient>
        <linearGradient id="paint4_linear_0_1" x1="-4156.25" y1="561.454" x2="1139.84" y2="-1664.61"
            gradientUnits="userSpaceOnUse">
            <stop stop-color="#3C398D" />
            <stop offset="1" stop-color="#E4003C" />
        </linearGradient>
        <linearGradient id="paint5_linear_0_1" x1="-2800" y1="633.6" x2="1006.54" y2="-3002.89"
            gradientUnits="userSpaceOnUse">
            <stop stop-color="#3C398D" />
            <stop offset="1" stop-color="#E4003C" />
        </linearGradient>
        <linearGradient id="paint6_linear_0_1" x1="98.6667" y1="329.5" x2="106.182" y2="21.6946"
            gradientUnits="userSpaceOnUse">
            <stop stop-color="#3C398D" />
            <stop offset="1" stop-color="#E4003C" />
        </linearGradient>
        <linearGradient id="paint7_linear_0_1" x1="224.066" y1="100.672" x2="135.388" y2="237.578"
            gradientUnits="userSpaceOnUse">
            <stop stop-color="#E4003C" />
            <stop offset="1" stop-color="#3C398D" />
        </linearGradient>
        <linearGradient id="paint8_linear_0_1" x1="224.066" y1="100.672" x2="135.388" y2="237.578"
            gradientUnits="userSpaceOnUse">
            <stop stop-color="#E4003C" />
            <stop offset="1" stop-color="#3C398D" />
        </linearGradient>
        <linearGradient id="paint9_linear_0_1" x1="223.597" y1="100.672" x2="134.919" y2="237.578"
            gradientUnits="userSpaceOnUse">
            <stop stop-color="#E4003C" />
            <stop offset="1" stop-color="#3C398D" />
        </linearGradient>
    </defs>
</svg>
    