<svg width="32" height="32" viewBox="0 0 32 32" fill="none" xmlns="http://www.w3.org/2000/svg">
    <path fill-rule="evenodd" clip-rule="evenodd"
        d="M15.9991 0.000183105C7.17664 0.000183105 0.000366211 7.17789 0.000366211 16.0004C0.000366211 24.8229 7.17664 32.0002 15.9991 32.0002C24.8218 32.0002 31.9993 24.8226 31.9993 16.0004C31.9993 7.17789 24.8217 0.000183105 15.9991 0.000183105ZM14.0421 20.7362L13.9461 20.3202C13.8821 20.0215 13.8501 19.6695 13.8501 19.2642C13.8501 18.3682 14.0421 17.6109 14.4261 16.9922C14.8101 16.3735 15.2794 15.8295 15.8341 15.3602C16.4101 14.8695 16.9861 14.4002 17.5621 13.9522C18.1381 13.4828 18.6181 12.9708 19.0021 12.4162C19.3861 11.8402 19.5781 11.1468 19.5781 10.3362C19.5781 9.50418 19.2794 8.80018 18.6821 8.22418C18.1061 7.62685 17.2528 7.32818 16.1221 7.32818C15.4181 7.32818 14.8208 7.47752 14.3301 7.77618C13.8394 8.05352 13.4554 8.37352 13.1781 8.73618C12.9008 9.07752 12.7301 9.36552 12.6661 9.60018L9.4661 8.00018C9.55144 7.85085 9.71144 7.57352 9.9461 7.16818C10.2021 6.74152 10.5861 6.29352 11.0981 5.82418C11.6101 5.35485 12.2821 4.94952 13.1141 4.60818C13.9674 4.26685 15.0341 4.09618 16.3141 4.09618C17.7221 4.09618 18.9594 4.36285 20.0261 4.89618C21.0928 5.42952 21.9141 6.14418 22.4901 7.04018C23.0874 7.93618 23.3861 8.92818 23.3861 10.0162C23.3861 11.1468 23.1834 12.0962 22.7781 12.8642C22.3728 13.6322 21.8714 14.2828 21.2741 14.8162C20.6768 15.3282 20.0688 15.8082 19.4501 16.2562C18.8528 16.7042 18.3514 17.1628 17.9461 17.6322C17.5408 18.1015 17.3381 18.6775 17.3381 19.3602C17.3381 19.7015 17.3488 20.0215 17.3701 20.3202L17.4021 20.7362H14.0421ZM14.3621 27.6802C14.8101 28.1069 15.3648 28.3202 16.0261 28.3202C16.6661 28.3202 17.2101 28.1069 17.6581 27.6802C18.1061 27.2322 18.3301 26.6882 18.3301 26.0482C18.3301 25.3869 18.1061 24.8429 17.6581 24.4162C17.2101 23.9682 16.6661 23.7442 16.0261 23.7442C15.3648 23.7442 14.8101 23.9682 14.3621 24.4162C13.9354 24.8429 13.7221 25.3869 13.7221 26.0482C13.7221 26.6882 13.9354 27.2322 14.3621 27.6802Z"
        fill="currentColor" />
</svg>
    