<svg width="450" height="328" viewBox="0 0 450 328" fill="none" xmlns="http://www.w3.org/2000/svg">
    <path
        d="M345.542 2.10392C346.602 4.65475 344.179 16.5086 341.605 21.3102C340.697 22.9608 336.004 28.5126 331.159 33.4642L322.377 42.4672L330.25 42.9173C334.641 43.2174 340.848 43.9677 344.179 44.4178C349.781 45.4681 350.235 45.9183 350.69 50.8699C350.992 54.6211 350.235 56.8719 347.964 58.9726C345.088 61.5234 343.725 61.6735 330.704 60.173C314.353 58.2223 308.297 55.6715 305.723 49.5195C302.544 42.017 306.934 35.5649 320.712 27.7623C329.947 22.5106 336.609 15.4583 340.394 6.75544C343.876 -1.04712 344.179 -1.34722 345.542 2.10392Z"
        fill="url(#paint0_linear_380_36)" />
    <path
        d="M437.14 15.4583C438.2 20.1098 441.38 27.1622 444.559 31.5136C456.369 48.7692 448.798 59.8729 423.363 62.1236L411.705 63.174L409.282 57.322C407.92 54.171 405.8 50.2697 404.286 48.7692C401.712 45.9183 402.015 45.7683 413.824 46.8186C434.869 48.4691 439.411 45.4682 435.324 32.714C432.598 24.6113 431.841 7.2056 433.961 7.2056C434.718 7.2056 436.081 10.9568 437.14 15.4583Z"
        fill="url(#paint1_linear_380_36)" />
    <path
        d="M254.095 28.0625C256.517 38.5659 255.306 47.869 250.461 55.2214C246.373 61.3734 245.313 61.8235 221.543 67.8255C199.893 73.3773 195.351 74.8778 188.537 79.2292C179.605 84.7811 176.122 91.8334 177.334 101.737C178.091 107.739 177.636 108.789 174.306 111.34C169.158 115.091 167.341 112.84 167.341 102.187C167.341 81.63 181.422 69.7761 212.156 64.3744C221.24 62.7238 226.842 60.4731 226.842 58.3724C226.842 57.7722 230.325 53.8709 234.412 49.8196C243.497 41.1167 247.736 34.8147 250.31 26.2619L252.127 20.1098L254.095 28.0625Z"
        fill="url(#paint2_linear_380_36)" />
    <path fill-rule="evenodd" clip-rule="evenodd"
        d="M408.677 77.5787C405.8 54.9213 397.927 42.7673 384.604 40.9667C375.217 39.7663 357.2 39.4662 352.961 40.5165C349.781 41.4168 349.63 41.7169 351.749 45.7683C356.897 55.5215 352.052 65.1246 341.757 65.1246C337.366 65.1246 333.581 66.4751 328.736 69.7762L321.772 74.5777L325.405 77.2786C329.947 80.7297 336.761 82.0802 345.693 81.3299C352.506 80.8798 352.658 80.8798 349.478 83.4306C345.088 86.8818 334.035 88.3822 329.645 86.1315C324.497 83.4306 317.684 76.9785 317.684 74.5777C317.684 73.5274 320.106 71.4267 322.983 70.0762C325.86 68.7258 328.282 67.0753 328.282 66.4751C328.282 65.8749 325.103 64.8245 321.317 64.2243C314.959 63.324 314.05 63.6241 309.508 67.9756C306.783 70.6764 303.603 75.478 302.695 78.9292C302.177 83.126 301.929 86.9098 301.718 90.1165C301.406 94.878 301.177 98.3675 300.272 100.049C299.591 98.3606 299.495 84.481 300.878 79.5293C301.826 76.1381 302.043 75.5621 301.989 75.5358C301.964 75.5238 301.882 75.6281 301.787 75.6281C301.332 75.6281 297.396 78.9291 293.005 82.8304C278.319 96.0348 265.299 103.537 250.461 107.288C246.979 108.189 231.233 109.389 215.487 109.989C182.936 111.19 180.513 111.94 170.066 124.094C163.707 131.446 163.405 134.147 168.855 134.147C177.182 134.147 199.136 140.449 211.248 146.151C241.68 160.706 260.302 187.715 267.57 227.628C268.629 233.18 270.9 238.732 273.777 242.633C276.2 245.934 278.319 249.985 278.319 251.336C278.319 252.686 279.985 257.488 281.953 261.839C287.403 273.693 290.886 294.1 289.069 302.352L289.015 302.582C287.741 307.993 287.266 310.009 288.04 310.761C288.521 311.227 289.484 311.205 291.037 311.205C294.368 311.205 294.671 311.956 295.276 318.708L295.73 326.21L296.048 326.976L320.144 326.868L317.381 320.508C317.115 319.982 316.799 319.349 316.443 318.639C314.77 315.299 312.236 310.239 310.114 306.404C301.938 291.249 300.575 280.445 302.695 245.934C304.663 213.823 303.755 204.67 298.153 193.567C296.487 190.566 295.562 188.165 295.882 188.165C295.882 188.165 307.085 199.081 309.356 213.148C309.356 213.148 310.265 219.225 309.811 228.528L309.205 243.833L313.142 242.933C320.863 241.132 332.824 231.529 347.359 215.474C355.686 206.321 362.499 199.119 362.802 199.419C364.619 201.069 353.112 218.925 344.028 228.678L337.669 235.431L341 248.185C342.817 255.237 345.845 263.64 347.51 266.941C352.052 275.794 355.989 295.45 354.777 304.003C353.869 310.605 354.02 311.205 356.897 311.205C359.471 311.205 360.077 312.106 360.077 316.307C360.077 319.158 360.531 322.459 360.985 323.809L364.8 326.534L386.572 326.248L379.305 313.456C368.252 294.1 365.83 286.297 365.073 265.29C364.467 250.435 364.77 244.734 367.344 233.78C371.432 215.924 373.249 201.819 374.308 179.162L375.217 160.406L368.858 172.11C365.224 178.562 360.531 186.064 358.26 188.615L354.02 193.417L357.2 185.164C361.742 173.16 371.583 152.903 376.731 144.351C379.305 140.299 380.97 136.398 380.516 135.648C380.062 134.898 377.791 133.997 375.217 133.397C370.372 132.347 354.475 122.593 351.295 118.842C349.933 117.042 351.598 117.492 356.594 120.043C366.587 124.994 391.568 134.297 397.624 135.198C404.437 136.248 415.641 131.897 416.852 127.695C417.458 125.895 418.518 123.044 419.426 121.243C420.486 118.842 420.183 116.742 417.912 112.24C413.522 103.837 410.342 91.8334 408.677 77.5787ZM378.245 80.8798C378.245 83.8808 372.189 81.48 369.463 77.4286C367.647 74.5777 367.647 74.1276 369.463 74.1276C372.492 74.1276 378.245 78.479 378.245 80.8798ZM405.043 124.544C403.68 126.045 399.138 123.494 398.23 120.943C397.473 118.542 399.744 118.692 403.378 121.243C404.892 122.443 405.649 123.944 405.043 124.544Z"
        fill="url(#paint3_linear_380_36)" />
    <path
        d="M422.909 69.6261C425.331 70.8265 428.056 72.6271 428.965 73.3773C431.236 75.7781 422.909 82.2302 417.458 82.2302C413.522 82.2302 413.067 81.7801 413.067 77.1285C413.067 74.2776 412.613 70.9765 412.159 69.6261C410.948 66.475 416.701 66.475 422.909 69.6261Z"
        fill="url(#paint4_linear_380_36)" />
    <path
        d="M51.9724 97.8353C54.5463 99.6359 54.0921 99.936 47.7332 102.187C41.8285 104.137 40.6172 104.137 40.6172 102.487C40.6172 99.936 44.7051 95.7346 47.2789 95.7346C48.3387 95.7346 50.307 96.6349 51.9724 97.8353Z"
        fill="url(#paint5_linear_380_36)" />
    <path fill-rule="evenodd" clip-rule="evenodd"
        d="M49.3226 326.81L48.1874 323.359C48.1874 318.408 54.0921 312.706 60.451 311.806L66.3557 310.755V302.352C66.3557 297.701 64.236 283.446 61.6622 270.692C57.5743 250.435 56.9687 244.433 57.1201 224.177C57.1201 211.423 57.7257 197.318 58.3314 192.967L59.5426 185.164L67.5669 191.616C71.9576 195.217 81.0417 201.069 88.0063 204.67C99.5128 210.672 100.118 210.822 96.6361 206.921C91.3371 201.069 55.4547 174.961 41.9799 167.008C35.9238 163.407 25.6284 158.755 19.4209 156.655C8.67135 153.053 7.76294 152.303 3.97787 145.401C-1.77542 134.898 -1.47262 133.097 6.0975 131.146C18.9667 127.845 23.0546 125.745 24.1144 121.393C26.3854 113.591 41.2229 105.938 57.2715 104.588C63.0248 104.137 67.8697 103.237 67.8697 102.637C67.8697 100.536 75.4398 93.634 77.7108 93.634C79.0735 93.634 81.7987 95.2845 83.767 97.3852C87.8548 101.286 88.7633 108.339 86.038 115.391C84.8268 118.692 84.8268 119.292 86.6436 118.692C88.1576 118.092 89.2175 119.893 90.5801 124.394C95.1222 140.599 85.281 156.955 66.8099 163.557L61.0566 165.508L66.0529 165.658C75.5912 165.658 88.3091 157.855 93.0025 148.852C96.0306 143 96.0306 130.246 92.8511 122.593C91.1857 118.542 90.7315 115.541 91.6399 113.891C92.8511 111.79 94.5165 112.24 105.115 117.492C111.625 120.793 119.952 125.895 123.434 128.896C131.762 135.948 131.762 133.097 123.434 124.094C116.47 116.592 117.227 116.291 130.853 122.143C143.117 127.395 158.863 144.951 168.855 164.607C173.7 174.21 174.306 176.911 176.88 202.87C180.665 237.981 180.665 252.986 177.031 269.342C173.851 283.296 161.588 315.407 156.894 322.009L154.018 326.21L153.329 327.07C137.88 327.051 123.993 327.027 111.776 327.001L112.533 321.859C113.745 315.857 117.984 312.556 125.251 311.655L131.459 310.755V300.702C131.459 287.197 126.765 264.99 120.861 251.186C118.135 245.034 115.562 238.281 115.107 236.181C114.502 233.48 114.047 233.18 113.593 234.98C113.29 236.481 114.199 241.733 115.562 246.834C116.773 251.936 117.53 256.437 117.227 256.737C116.319 257.788 110.262 254.337 103.449 248.935C92.8511 240.682 92.5483 241.432 102.389 251.486L112.079 261.239L110.262 270.092C107.991 280.595 97.696 310.755 93.4568 318.858C91.9427 322.009 90.2012 326.95 90.2012 326.95C63.628 326.878 49.3226 326.81 49.3226 326.81ZM35.6963 128.145C34.9393 128.145 34.5608 126.645 34.5608 125.894C34.5608 124.994 37.1725 123.119 38.5351 123.119C39.7463 123.119 41.2604 123.869 40.8062 124.769C40.3519 125.519 36.6047 128.145 35.6963 128.145Z"
        fill="url(#paint6_linear_380_36)" />
    <path
        d="M164.767 321.409C168.552 315.257 181.119 283.746 182.33 276.844C183.39 271.742 186.872 269.342 196.865 266.941L200.801 265.891L191.263 293.5C189.239 299.231 187.303 304.766 185.649 309.493C182.974 317.141 181.039 322.675 180.665 323.509C180.665 323.509 179.437 326.869 179.438 327.096C173.837 327.092 168.398 327.087 163.125 327.082L164.767 321.409Z"
        fill="url(#paint7_linear_380_36)" />
    <path
        d="M203.526 322.909C203.072 320.959 202.618 317.958 202.618 316.157C202.618 314.356 201.407 312.556 199.893 312.106C197.622 311.355 197.319 309.705 197.773 299.802C198.379 288.998 202.618 275.194 205.495 275.194C206.1 275.194 207.614 281.196 208.977 288.398C210.491 297.101 213.368 305.654 217.153 313.306L223.057 325.01L224.098 327.117C222.752 327.113 221.396 327.111 220.029 327.111C214.832 327.111 209.738 327.11 204.75 327.109L203.526 322.909Z"
        fill="url(#paint8_linear_380_36)" />
    <path
        d="M224.874 320.358C225.934 317.808 228.508 314.656 230.627 313.306C233.05 311.655 234.412 309.405 234.412 306.854C234.412 299.351 224.571 282.396 213.519 270.842L202.769 259.738L210.037 251.786C223.057 237.681 228.054 221.776 225.48 203.17C224.723 197.168 223.663 191.916 223.057 191.466C222.603 191.016 222.603 193.267 223.057 196.418C225.328 210.222 216.244 236.631 205.343 248.185C199.136 254.637 189.295 263.19 187.78 263.19C187.175 263.19 186.721 254.937 186.721 244.884C186.721 228.078 185.358 212.923 181.27 182.313C179.605 169.259 174.911 158.755 166.13 147.652C160.679 140.749 160.377 139.999 163.405 140.899C165.007 141.51 170.726 142.917 177.046 144.472C178.487 144.827 179.96 145.189 181.422 145.551C212.459 153.204 233.201 168.358 247.584 193.717C256.971 210.222 263.785 238.882 266.358 272.793C268.024 295 267.721 319.158 265.601 323.509L263.368 327.373C250.855 327.398 238.026 327.159 224.098 327.117L224.874 320.358Z"
        fill="url(#paint9_linear_380_36)" />
    <defs>
        <linearGradient id="paint0_linear_380_36" x1="2.68221e-05" y1="-1.95131e-05" x2="311.479"
            y2="428.149" gradientUnits="userSpaceOnUse">
            <stop stop-color="#E4003C" />
            <stop offset="1" stop-color="#3C398D" />
        </linearGradient>
        <linearGradient id="paint1_linear_380_36" x1="2.68221e-05" y1="-1.95131e-05" x2="311.479"
            y2="428.149" gradientUnits="userSpaceOnUse">
            <stop stop-color="#E4003C" />
            <stop offset="1" stop-color="#3C398D" />
        </linearGradient>
        <linearGradient id="paint2_linear_380_36" x1="2.68221e-05" y1="-1.95131e-05" x2="311.479"
            y2="428.149" gradientUnits="userSpaceOnUse">
            <stop stop-color="#E4003C" />
            <stop offset="1" stop-color="#3C398D" />
        </linearGradient>
        <linearGradient id="paint3_linear_380_36" x1="2.68221e-05" y1="-1.95131e-05" x2="311.479"
            y2="428.149" gradientUnits="userSpaceOnUse">
            <stop stop-color="#E4003C" />
            <stop offset="1" stop-color="#3C398D" />
        </linearGradient>
        <linearGradient id="paint4_linear_380_36" x1="2.68221e-05" y1="-1.95131e-05" x2="311.479"
            y2="428.149" gradientUnits="userSpaceOnUse">
            <stop stop-color="#E4003C" />
            <stop offset="1" stop-color="#3C398D" />
        </linearGradient>
        <linearGradient id="paint5_linear_380_36" x1="2.68221e-05" y1="-1.95131e-05" x2="311.479"
            y2="428.149" gradientUnits="userSpaceOnUse">
            <stop stop-color="#E4003C" />
            <stop offset="1" stop-color="#3C398D" />
        </linearGradient>
        <linearGradient id="paint6_linear_380_36" x1="2.68221e-05" y1="-1.95131e-05" x2="311.479"
            y2="428.149" gradientUnits="userSpaceOnUse">
            <stop stop-color="#E4003C" />
            <stop offset="1" stop-color="#3C398D" />
        </linearGradient>
        <linearGradient id="paint7_linear_380_36" x1="2.68221e-05" y1="-1.95131e-05" x2="311.479"
            y2="428.149" gradientUnits="userSpaceOnUse">
            <stop stop-color="#E4003C" />
            <stop offset="1" stop-color="#3C398D" />
        </linearGradient>
        <linearGradient id="paint8_linear_380_36" x1="2.68221e-05" y1="-1.95131e-05" x2="311.479"
            y2="428.149" gradientUnits="userSpaceOnUse">
            <stop stop-color="#E4003C" />
            <stop offset="1" stop-color="#3C398D" />
        </linearGradient>
        <linearGradient id="paint9_linear_380_36" x1="2.68221e-05" y1="-1.95131e-05" x2="311.479"
            y2="428.149" gradientUnits="userSpaceOnUse">
            <stop stop-color="#E4003C" />
            <stop offset="1" stop-color="#3C398D" />
        </linearGradient>
    </defs>
</svg>
    