<svg width="300" height="225" viewBox="0 0 300 225" fill="none" xmlns="http://www.w3.org/2000/svg">
    <path
        d="M77.4674 1.5327C79.21 2.24796 81.4652 3.98501 82.2853 5.31335C85.5655 10.3202 85.3605 14.4074 81.3627 23.7057C80.0301 26.9755 84.7455 25.9537 86.7956 22.5817L88.5382 19.7207L96.4313 24.1144C103.914 28.406 104.632 28.6104 108.732 27.5886C119.496 25.1362 128.004 26.9755 143.38 34.8433C154.963 40.8719 156.808 40.9741 178.13 37.2956C195.454 34.3324 200.169 34.1281 213.188 36.376C230.512 39.3392 249.373 49.0463 259.521 60.2861C264.544 65.8038 272.95 78.1676 273.975 81.3352C274.385 82.5613 276.025 84.094 277.665 84.8093C283.918 87.3638 289.966 96.6621 289.966 103.508C289.966 106.165 288.121 109.537 285.353 111.887C283.098 113.931 283.098 114.033 284.328 122.105C285.046 126.601 286.173 135.695 286.788 142.337C288.223 156.948 289.761 163.896 295.194 179.53C297.552 186.172 299.704 193.529 299.909 195.981C300.832 203.849 294.579 216.213 287.096 221.219C283.406 223.774 282.996 223.774 263.417 223.774H243.53L244.248 220.708C245.478 214.373 249.681 210.695 257.061 209.571C261.776 208.856 261.776 208.856 261.571 205.075C261.161 199.149 257.881 193.937 247.63 183.106C226.309 160.525 217.186 139.782 217.186 114.237C217.186 108.413 217.698 100.545 218.211 96.6621C218.826 92.7793 219.031 89.4074 218.826 89.1008C218.006 88.2834 212.368 100.545 211.035 106.165C210.215 109.741 209.908 115.668 210.215 123.025C210.728 132.527 211.343 136.001 214.418 144.789C218.621 156.948 219.236 156.335 204.475 156.335C197.914 156.335 191.969 155.518 183.666 153.576L172.082 150.715V139.782C172.082 117.813 166.034 100.136 153.938 86.955C147.173 79.5981 143.482 77.1458 147.48 82.7657C148.71 84.4006 151.273 89.3052 153.221 93.5967C160.396 109.026 164.087 124.046 165.522 143.052C167.162 166.247 157.936 201.192 146.353 215.804C140.305 223.263 137.434 224.08 114.37 224.591L94.1762 225V222.752C94.1762 219.687 97.8664 213.249 100.634 211.512C101.864 210.797 105.452 209.571 108.527 208.958C113.96 207.936 114.165 207.732 115.908 203.031C118.471 196.287 119.393 180.143 117.753 170.64C115.19 154.7 112.218 148.774 99.4041 133.345C90.4859 122.718 87.9232 119.346 83.4128 111.887C80.5426 107.289 79.7225 106.471 80.1326 108.617C80.3376 110.252 80.1326 111.376 79.415 111.376C75.6223 111.376 60.8611 96.1512 52.1479 83.3788C41.7946 68.154 32.8765 62.0232 17.7053 59.7752C10.8373 58.7534 7.65955 56.0967 3.55923 47.9223C-1.9762 36.8869 -1.97617 36.8869 10.2223 33.3106C17.6028 31.1649 21.8056 28.0995 20.9856 25.2384C20.5756 23.7057 21.4981 22.0708 24.2658 19.5163C27.8536 16.0422 28.0586 15.6335 27.136 11.955C24.5734 1.83924 36.5667 -3.16757 42.3072 5.61989C44.3573 8.68529 44.3573 8.68529 53.9931 8.68529C63.2188 8.58311 63.6288 8.48093 65.1664 5.92643C66.7041 3.47411 71.5219 0 73.3671 0C73.7771 0.10218 75.6222 0.715259 77.4674 1.5327ZM31.7489 27.4864C30.3138 30.0409 33.0273 30.9533 36 29.625C38.5627 28.501 38.3551 26.999 37.125 25.875C35.8949 24.5467 32.774 25.545 31.7489 27.4864Z"
        fill="currentColor" />
    <path
        d="M56.4533 100.852C59.836 105.961 68.6517 114.544 76.0323 120.164C79.3125 122.616 85.668 129.155 89.9733 134.673C94.2787 140.089 99.8141 146.628 102.069 149.08L106.375 153.474L103.197 162.262C93.9712 188.522 75.0072 216.826 62.9113 222.343C58.0934 224.591 56.5558 224.796 38.9244 224.796H20.063L20.678 221.117C21.7031 214.986 28.4687 209.469 35.1317 209.469C38.4119 209.469 43.2298 203.951 45.7925 196.901C50.8154 183.617 51.4304 177.384 52.0455 136.717C52.353 115.565 52.968 97.9905 53.2756 97.684C53.5831 97.2752 55.0182 98.8079 56.4533 100.852Z"
        fill="currentColor" />
    <path
        d="M188.483 164.101C194.121 165.736 214.213 165.634 220.363 163.999C222.618 163.386 223.234 163.794 224.361 166.553C225.181 168.392 227.539 172.071 229.589 174.728C233.484 179.632 233.484 179.734 232.049 183.617C231.229 185.763 228.769 193.426 226.411 200.783C224.156 208.14 221.388 215.497 220.261 217.337C216.366 223.774 215.648 223.876 189.303 223.978C172.697 223.978 165.419 223.569 165.522 222.854C165.624 222.241 165.727 220.811 165.727 219.687C166.034 216.519 171.775 210.695 175.465 209.98C181.513 208.753 182.128 208.345 183.255 205.177C185.613 198.433 183.871 171.662 180.59 165.225C179.36 162.772 179.36 162.466 181 162.568C182.025 162.568 185.408 163.283 188.483 164.101Z"
        fill="currentColor" />
</svg>
    