<svg width="400" height="320" viewBox="0 0 400 320" fill="none" xmlns="http://www.w3.org/2000/svg">
    <path
        d="M353.586 6.19829C345.648 13.45 329.101 21.361 315.916 24.3935C305.154 26.7668 298.965 29.9312 295.602 34.9415C293.449 38.2377 293.449 38.5014 296.005 41.7976C299.234 46.1487 304.615 47.9946 310.266 46.9398C318.741 45.3576 348.339 23.075 355.2 13.0545C357.756 9.36267 361.658 -0.13049 360.582 0.00135962C360.447 0.133209 357.353 2.90205 353.586 6.19829Z"
        fill="currentColor" />
    <path
        d="M390.448 16.6144C383.721 23.3387 370.672 30.1949 364.483 30.4586C360.178 30.5904 352.375 32.5682 355.2 32.8319C356.007 32.9637 360.043 35.9963 364.214 39.6881L371.748 46.4124L377.936 41.9295C385.336 36.7874 393.811 25.3165 396.099 17.4055C396.906 14.373 397.444 11.4723 397.04 11.2086C396.771 10.813 393.811 13.3182 390.448 16.6144Z"
        fill="currentColor" />
    <path
        d="M137.225 319.604L135.237 316.572C133.892 314.594 129.587 308.002 125.551 301.937C115.864 287.697 111.828 276.621 110.887 261.986C109.81 246.032 111.828 241.418 125.416 227.969C135.641 217.948 135.91 217.421 133.085 215.971C128.376 213.466 111.828 215.18 104.698 218.871C97.164 222.695 78.3293 236.803 77.3876 239.176C76.9839 240.099 78.8674 246.428 81.6926 253.152C88.4193 269.897 92.9935 286.642 92.9935 294.289C92.9935 299.695 93.3971 300.75 96.4914 302.068C99.5857 303.519 107.459 315.649 107.459 319.604H137.225Z"
        fill="currentColor" />
    <path fill-rule="evenodd" clip-rule="evenodd"
        d="M308.921 57.0921C317.262 57.0921 323.719 53.7959 334.482 44.1709C338.922 40.2154 343.092 36.9191 343.63 36.7873C344.168 36.7873 348.339 38.6332 352.779 40.7428C360.582 44.6983 362.6 46.4123 376.86 61.9705C380.896 66.3216 387.085 71.2 391.793 73.7051L400 77.9243L399.058 86.7582C397.982 96.9106 397.847 97.3062 391.793 102.185C387.623 105.613 385.739 106.14 374.304 106.799C357.487 107.986 347.397 111.678 339.594 119.457C332.329 126.84 330.446 133.037 327.755 158.089C325.334 181.426 323.181 190.128 316.858 202.522C311.477 213.07 305.557 220.322 297.216 226.914C292.776 230.21 291.835 230.606 292.642 228.628C299.638 212.015 300.714 207.532 300.714 191.051C300.714 172.592 299.1 165.077 291.431 150.046C283.225 134.224 267.35 118.402 251.475 110.491C243.672 106.536 231.967 103.899 228.469 105.349L225.509 106.536L228.738 107.459C233.043 108.777 245.42 115.238 253.896 120.644C263.179 126.709 274.48 138.575 280.534 148.727C295.736 174.306 296.409 195.666 282.955 231.925C275.556 251.966 273.942 284.928 279.727 294.817C280.508 296.179 282.299 299.244 284.339 302.735L284.374 302.795C285.484 304.695 286.666 306.718 287.799 308.661L294.125 320H265.873L260.354 311.298C258.739 307.211 256.049 302.991 254.569 301.937C252.147 300.091 251.744 297.849 251.071 284.664C249.995 266.205 248.649 259.217 242.999 246.428C240.577 241.022 238.29 234.43 237.752 231.925C237.348 229.288 234.389 224.014 231.429 220.058C219.994 205.159 214.881 188.414 215.688 167.714C215.958 161.121 215.688 155.979 215.285 156.243C212.863 157.693 209.634 172.988 209.5 183.14C209.5 196.721 212.998 208.06 220.935 220.19C224.837 226.123 225.644 228.101 223.895 227.442C204.388 219.926 182.324 223.354 173.714 235.221C171.83 237.726 170.081 239.835 169.678 239.835C169.274 239.835 166.314 236.539 162.951 232.452C156.494 224.541 149.363 219.003 141.022 215.575C138.197 214.52 136.179 212.938 136.717 212.147C137.255 211.356 144.116 210.829 153.265 210.697L153.377 210.696C168.335 210.565 168.86 210.56 164.431 208.719C156.359 205.159 138.601 203.577 127.569 205.291C122.187 206.082 116.537 207.137 115.192 207.796C113.174 208.455 113.577 207.532 116.806 203.313C126.223 191.71 131.47 175.493 130.259 161.385C129.99 156.902 128.645 151.628 127.569 149.387L125.416 145.563L125.282 152.419C125.147 177.866 113.039 201.335 91.2445 218.344C68.5083 236.276 64.7414 242.868 64.7414 264.887C64.7414 284.532 66.2212 289.675 75.9077 305.76L84.3833 319.604C84.3833 319.604 55.195 319.71 53.9818 319.604C53.9818 315.253 48.0591 303.519 44.6958 301.673L40.9288 299.563L40.1216 280.577C39.5835 266.996 38.3727 257.503 35.8166 247.219L32.4532 232.716L38.3727 227.442C49.4045 217.289 51.0189 210.96 47.7901 189.601C44.8303 169.692 46.3102 155.584 52.9024 142.399C56.7339 134.584 62.5129 125.385 71.1319 118.863C66.5914 112.436 60.5373 111.282 51.4563 111.282C46.7461 111.282 36.7583 116.688 30.4352 123.149C24.6502 128.95 22.6322 132.114 20.3451 139.102C18.8653 143.849 17.6545 149.782 17.6545 152.156C17.6545 154.529 17.2509 167.688 16.8473 168.874C29.0835 174.083 33.2723 193.968 24.7848 210.96C22.3632 215.575 18.8653 220.849 16.9818 222.695L13.6184 225.728V219.003C13.6184 213.202 12.8112 211.092 7.42988 203.313C-1.31482 191.051 -2.3911 179.053 4.47014 170.615C5.69734 169.011 6.57904 168.118 7.74557 167.714C6.2657 164.022 10.9278 136.993 14.5602 129.346C18.5962 120.775 29.8972 110.59 37.8347 106.503C64.5733 97.1083 75.1679 103.536 83.8452 111.282C85.5737 110.747 87.6276 109.689 88.5539 109.041C90.0337 107.986 93.128 107.722 109.138 107.854C113.174 107.854 118.959 107.59 121.918 107.195C124.878 106.799 137.928 106.536 150.978 106.667C172.772 106.931 175.866 106.668 187.974 103.503C205.06 99.0202 213.67 93.8781 224.702 81.6161C236.81 68.1675 252.685 54.0596 252.685 54.0596C264.356 43.3798 280.433 35.7657 284.469 36.2601C284.469 36.2601 279.996 42.1931 279.996 51.2907C279.996 60.3883 282.148 65.2668 288.068 70.277C295.871 76.6058 309.459 77.9243 315.109 72.914C319.414 69.0904 318.338 67.1126 312.822 68.563C300.176 71.9911 286.722 62.8935 286.722 50.8952C286.722 44.6983 288.068 44.039 290.893 48.6537C294.256 53.9277 300.848 57.0921 308.921 57.0921ZM357.572 70.3873C356.357 70.98 346.209 66.452 345.5 65C344.794 63.5545 349.164 62.2981 355 63C360.005 63.7035 360 69.2019 357.572 70.3873Z"
        fill="currentColor" />
</svg>
    