<svg width="200" height="344" viewBox="0 0 200 344" fill="none" xmlns="http://www.w3.org/2000/svg">
    <path
        d="M80.55 1.24878C83.6491 2.64636 85.8724 5.50809 86.5461 9.23499C86.9503 11.2315 86.6809 13.0284 84.9966 18.6853C84.7944 19.4174 85.4008 20.0829 87.0851 20.8815C88.3652 21.4805 91.06 23.8764 93.0138 26.0726C100.357 34.4581 103.254 39.2498 108.509 51.4954C113.764 63.6743 115.314 66.0037 122.118 71.3943C128.451 76.3857 131.82 80.1792 135.525 86.1023C138.355 90.7609 141.589 99.1465 143.138 105.935C144.62 112.324 146.507 115.784 152.031 122.44C173.253 148.062 185.919 171.888 190.837 195.713C192.859 205.43 194.139 220.537 193.532 227.325L193.061 232.25L195.89 234.979C199.259 238.173 200 239.837 200 244.362C199.933 250.219 196.564 255.41 190.635 258.605C188.614 259.669 188.075 260.668 185.582 267.789C184.033 272.181 182.281 276.64 181.675 277.771C180.125 280.766 176.622 291.747 175.342 297.404C174.668 300.599 174.129 307.919 173.86 317.769C173.523 326.82 173.051 333.542 172.647 334.074C172.243 334.607 171.569 336.337 171.098 337.934C170.626 339.598 169.75 341.595 169.211 342.46L168.201 343.99H142.667C113.966 343.99 116.122 344.456 119.962 338.866C121.243 336.936 123.129 335.472 126.026 334.074C128.249 332.943 130.54 332.011 131.011 332.011C131.416 332.011 132.83 331.079 133.976 330.015L136.199 327.952L135.795 321.829C135.458 316.571 134.852 314.175 131.416 304.725C127.104 292.812 126.295 289.817 125.217 281.898C123.398 267.988 124.948 257.806 131.416 241.634C132.965 237.907 133.976 234.646 133.774 234.446C131.079 231.718 121.243 247.557 118.076 259.802C116.527 265.726 116.392 267.389 116.661 275.109C116.796 279.835 117.2 284.36 117.47 285.026C118.009 286.157 117.807 286.29 115.516 285.891C110.935 285.159 102.109 280.367 96.5845 275.642C90.3863 270.318 85.1313 264.395 79.7416 256.475C74.1497 248.222 70.6464 246.292 70.6464 251.417C70.6464 254.944 75.6319 264.727 80.55 270.784C90.9253 283.695 102.446 291.681 115.112 295.008L119.491 296.206L120.771 300.133L122.051 304.126L119.828 307.587C118.615 309.517 117.065 311.979 116.392 313.11C114.775 315.773 112.417 324.757 112.417 328.351C112.417 330.747 111.81 331.945 107.499 337.535L102.648 343.924H77.8552C64.2461 343.99 53.1298 343.857 53.1298 343.658C53.1298 343.458 53.534 342.327 54.073 341.129C55.6899 337.468 59.0585 334.939 65.5262 332.677C72.6675 330.281 73.1392 329.882 74.8908 326.088C75.9014 323.825 76.1035 322.428 75.6993 319.433C75.0929 314.308 72.2633 301.73 70.9832 298.07C70.1074 295.541 68.6926 288.619 65.863 271.782C65.4588 269.586 65.1219 261.799 65.0546 254.478L64.9198 241.168L68.6252 240.968C73.9476 240.769 81.3585 237.042 86.2093 232.117C90.9926 227.325 93.6201 222.068 96.2476 212.218C98.4035 203.899 98.134 204.298 105.478 199.107C110.733 195.38 120.704 186.329 125.015 181.338C129.058 176.679 134.178 167.162 135.727 161.306C138.422 151.19 137.344 136.216 133.235 127.897C131.416 124.17 129.192 122.173 128.114 123.305C127.912 123.504 128.114 126.433 128.653 129.827C129.799 137.68 129.799 150.258 128.653 154.983C127.373 160.041 123.129 168.959 119.558 173.951C116.324 178.41 109.25 184.932 98.8078 193.184C95.1697 196.046 91.6664 199.307 90.9253 200.438C90.1842 201.636 88.8367 205.696 87.8262 209.489C86.883 213.283 85.3334 217.875 84.3902 219.738C82.3017 223.665 77.2488 228.789 73.5434 230.52C70.3769 232.05 64.9198 232.183 62.2249 230.852C59.4627 229.455 56.2962 225.062 54.8814 220.537C52.3213 212.617 54.9488 197.643 60.7428 187.261C61.9554 185.065 64.5156 180.539 66.402 177.212C70.579 169.891 74.015 162.038 74.015 159.908C74.015 159.11 72.8697 156.181 71.4549 153.519C65.7283 142.405 63.0334 134.419 61.2144 122.706C60.7428 119.778 60.1364 117.115 59.7996 116.783C59.1258 116.051 57.9805 120.177 57.0373 126.832C55.8246 135.817 58.7216 148.461 64.4482 159.509C65.7283 161.905 66.6041 159.842 56.431 178.277C53.9382 182.869 50.4349 190.056 48.6832 194.249C45.7863 201.303 45.5168 202.501 44.9104 210.221C44.102 221.469 43.2935 224.929 40.9355 228.19C37.2974 233.182 32.9183 234.579 26.7874 232.782C24.8337 232.183 23.6884 231.185 21.9367 228.59C16.3448 220.271 14.4584 214.281 14.5258 204.564C14.5258 195.513 15.469 191.52 19.8482 180.939C21.9367 176.014 24.6989 168.959 25.979 165.299L28.4044 158.644L28.9433 141.673C29.5497 122.306 30.3581 117.914 35.7479 104.737C39.5881 95.4861 40.3291 92.4247 40.3291 85.8361C40.3291 72.8585 37.1627 63.0754 31.3687 58.1505C28.2023 55.4219 21.263 52.0278 14.6605 49.8981C7.856 47.7019 5.2285 45.1064 2.33153 37.6526C-1.77815 27.3371 -1.44128 26.8712 11.4941 23.8098C23.5536 20.9481 24.0252 20.7484 25.44 18.0198C27.8654 13.3612 31.9077 10.9653 41.1376 8.63602C43.8325 7.97049 46.1231 6.97223 46.2579 6.50638C47.6727 1.98083 53.8035 1.51498 57.5089 5.57462C58.25 6.37326 60.2038 7.43808 61.8207 7.8374C63.3703 8.30325 65.1219 8.83566 65.5935 8.96878C66.0651 9.16843 66.6041 8.63602 66.8736 7.63773C67.5473 4.97568 71.1854 1.38187 73.8802 0.583252C77.1141 -0.281921 77.2488 -0.281921 80.55 1.24878ZM33.6 20.8875C31.9831 22.3516 32.3119 24.4875 34.1309 24.4875C35.6131 24.4209 38.308 21.1478 38.308 20.3492C38.308 20.1495 37.769 19.8167 37.0953 19.6836C36.489 19.4839 35.6 19.6875 35.6 19.6875C35.3979 19.6875 34.2737 20.222 33.6 20.8875Z"
        fill="currentColor" />
</svg>
    