<svg width="401" height="360" viewBox="0 0 401 360" fill="none" xmlns="http://www.w3.org/2000/svg">
    <path
        d="M401 40.6306C401 43.5927 396.946 50.1901 391.947 55.845C386.542 61.9039 377.353 67.0203 369.651 68.3667C364.921 69.1745 364.516 69.0399 363.84 65.5392C363.3 63.5196 362.489 60.4228 361.814 58.6725C360.597 55.845 360.733 55.7104 368.975 55.7104C379.38 55.7104 387.352 52.2097 395.19 44.5352C398.433 41.573 401 39.6881 401 40.6306Z"
        fill="url(#paint0_linear_380_34)" />
    <path
        d="M190.204 250.536C190.204 252.825 182.096 264.539 175.745 271.271C167.503 280.023 161.017 283.793 147.639 287.428C128.586 292.545 127.911 293.218 115.209 317.857C107.507 332.668 105.21 335.899 101.832 337.246C99.5344 338.188 95.4807 340.342 92.7781 341.958C86.9677 345.593 73.32 349.767 70.7526 348.825C69.2662 348.286 69.1311 346.67 70.077 341.958C72.239 330.244 76.563 324.993 83.995 324.993C86.0219 324.993 87.5082 324.185 87.5082 323.243C87.5082 322.166 89.8054 319.877 92.5079 318.126C98.9939 314.087 104.804 302.643 105.885 292.679C107.237 278.273 107.642 276.792 110.885 275.984C112.506 275.58 117.506 272.483 121.965 268.982C138.586 256.461 154.395 250.806 175.61 249.863C183.988 249.594 190.204 249.863 190.204 250.536Z"
        fill="url(#paint1_linear_380_34)" />
    <path fill-rule="evenodd" clip-rule="evenodd"
        d="M384.771 0.103482C384.771 2.66167 376.933 13.5676 371.934 17.8762C365.583 23.3964 358.827 26.4932 346.665 29.4553C335.72 32.2828 332.072 35.2449 332.072 41.7077C332.072 44.5351 332.612 46.1508 333.423 45.6123C334.099 45.2084 334.774 43.5927 334.774 42.1116C334.774 40.7652 335.72 39.5534 336.801 39.5534C339.504 39.5534 357.746 57.5954 357.746 60.1536C357.746 63.9235 367.069 83.9851 373.555 94.0832C379.906 103.912 380.312 107.009 375.852 112.125C371.528 117.376 363.286 121.685 357.881 121.685C355.178 121.685 351.935 120.069 347.746 116.434C340.855 110.509 335.855 108.894 328.018 110.24C318.559 111.856 311.803 119.53 311.803 128.955C311.803 131.514 313.289 138.515 315.181 144.439C319.775 158.846 325.045 163.289 345.855 170.021C360.448 174.868 362.34 178.638 367.88 213.241C370.583 230.61 370.583 231.417 365.448 237.072C363.016 239.9 359.232 244.747 357.205 247.978C353.016 254.172 345.044 261.712 342.747 261.712C340.45 261.712 335.855 249.729 335.72 243.401C335.72 237.072 338.423 232.764 343.828 230.61C346.26 229.667 346.8 228.725 346.125 225.628C345.584 223.07 345.99 221.319 347.476 220.108C351.935 216.338 348.827 201.662 342.476 196.276C340.044 194.256 336.936 193.045 333.964 193.045C330.72 193.045 329.099 192.371 328.558 190.621C325.721 181.331 322.208 177.022 313.289 172.444C308.425 169.886 301.398 166.79 297.885 165.443L272.211 147.94C259.779 141.073 256.807 141.746 265.59 149.421C269.509 152.787 274.373 158.173 276.535 161.269C279.643 165.712 282.481 167.732 290.994 171.367C315.046 181.6 315.586 181.869 319.37 187.524C322.883 192.775 322.883 193.583 322.072 204.893C319.91 232.495 316.938 246.901 313.289 246.901C312.614 246.901 307.884 250.671 302.614 255.384C291.804 265.078 282.886 269.79 280.319 267.232C279.373 266.29 278.832 261.712 278.832 255.788C278.832 243.67 281.129 239.496 288.967 237.476C292.885 236.399 294.237 235.322 293.966 233.706C293.831 232.495 295.588 229.532 298.02 227.109C301.398 223.743 302.344 221.723 302.614 217.011C302.885 207.855 302.344 204.893 299.506 200.988C295.723 195.603 290.183 194.391 270.59 194.66C245.591 194.93 241.943 193.045 231.673 175.407C229.782 171.906 226.809 166.251 225.322 162.616L222.485 156.018L223.295 166.655C224.241 181.869 228.295 190.083 237.754 196.276C248.023 203.008 254.374 204.22 272.616 203.277L288.156 202.335L279.643 210.548C270.59 219.165 262.077 224.012 245.321 230.071C237.889 232.764 232.484 235.861 225.863 241.381C211.134 253.633 212.485 253.229 207.08 248.517C194.784 237.611 165.867 237.746 142.896 248.652C136.004 251.883 133.572 252.556 134.248 251.075C138.166 242.054 143.031 226.436 145.463 215.26C148.976 198.969 151.679 190.486 156.003 181.869C159.921 173.926 159.381 172.579 154.516 178.369C148.841 184.966 146.274 191.025 141.544 209.202C139.112 218.492 134.923 230.879 132.086 236.803C123.167 255.384 105.736 271.675 83.4403 282.043C77.0894 285.139 69.9277 289.448 67.3604 291.737C64.5227 294.43 58.8475 303.989 52.2263 317.588C41.0108 340.208 41.1459 339.938 24.6606 351.652C18.3097 356.23 8.986 360 4.39172 360C0.473076 360 0.0677056 357.576 2.49997 346.67C4.2566 338.053 8.04015 333.341 13.8506 332.264C17.2287 331.725 18.5799 330.648 18.5799 328.898C18.5799 327.417 20.742 324.993 23.985 322.974C26.9578 321.089 30.3359 318.126 31.552 316.242C36.1463 309.24 40.2001 295.103 41.1459 283.254L41.158 283.08C41.9568 271.538 41.9755 271.267 45.7402 270.463C51.5506 269.117 59.9284 262.385 63.7119 256.057C65.6037 252.825 68.5765 244.747 70.6034 238.15C75.3328 221.454 77.4948 216.472 83.5754 207.586C86.4131 203.277 88.8453 199.104 88.8453 198.161C88.8453 197.219 85.6023 194.391 81.6837 191.833C66.5496 181.869 58.0367 171.367 56.8206 160.865C55.6044 150.633 60.4689 141.746 74.522 128.013C85.0618 117.915 86.1428 116.299 86.1428 111.721C86.1428 108.355 84.9267 105.124 82.6295 102.027C80.6027 99.4689 77.2245 93.6793 75.0625 88.9668C72.9005 84.389 69.7926 79.2727 68.3062 77.5223C64.6578 73.7524 66.4144 73.7524 78.4406 77.7916C97.6285 84.1198 102.763 96.9107 93.5747 114.953C91.8181 118.453 85.4672 126.532 79.5217 132.995C68.036 145.382 65.1983 151.171 66.2793 159.519C67.2252 166.79 71.5493 172.175 79.7919 176.08C89.6561 180.927 99.1149 181.6 114.789 179.042C131.275 176.214 140.734 172.983 151.409 166.52C161.543 160.461 174.92 150.498 176.272 147.94C176.947 146.997 180.866 142.419 185.055 137.976C189.379 133.398 252.685 68.6696 252.685 68.6696C252.685 68.6696 278.697 40.4959 292.885 37.1299C303.56 35.5142 304.236 35.7835 305.722 40.4959C306.398 43.1887 306.128 43.5927 302.749 43.5927C296.534 43.5927 288.831 46.2855 288.831 48.3051C288.831 49.3822 289.372 50.3247 289.912 50.3247C290.453 50.3247 291.804 52.479 292.75 55.0372C293.696 57.73 296.534 62.0385 299.101 64.4621C303.02 68.3667 304.776 69.1745 309.506 69.1745C312.749 69.1745 316.532 68.3667 317.884 67.2895C320.181 65.6738 319.91 65.4046 315.181 64.5967C312.208 64.0582 308.29 62.7117 306.263 61.7693C301.668 59.3457 297.615 53.1522 299.371 51.4019C300.723 50.0554 312.073 50.594 318.829 52.3443C324.234 53.6908 323.694 51.1326 317.208 45.0737C311.938 40.092 310.857 37.1299 311.668 29.59C312.343 21.6461 322.748 17.0683 343.828 15.4526C361.799 14.1062 369.096 11.6826 378.96 3.7388C382.203 1.18061 384.771 -0.435083 384.771 0.103482ZM348.287 74.5602C346.936 74.5602 337.477 63.7889 337.477 62.1732C337.477 60.5647 337.879 60.8244 342.815 64.0149C347.004 66.8424 350.989 74.5602 348.287 74.5602Z"
        fill="url(#paint2_linear_380_34)" />
    <defs>
        <linearGradient id="paint0_linear_380_34" x1="0.985894" y1="-2.14577e-05" x2="358.996"
            y2="397.803" gradientUnits="userSpaceOnUse">
            <stop stop-color="#E4003C" />
            <stop offset="1" stop-color="#3C398D" />
        </linearGradient>
        <linearGradient id="paint1_linear_380_34" x1="0.985894" y1="-2.14577e-05" x2="358.996"
            y2="397.803" gradientUnits="userSpaceOnUse">
            <stop stop-color="#E4003C" />
            <stop offset="1" stop-color="#3C398D" />
        </linearGradient>
        <linearGradient id="paint2_linear_380_34" x1="0.985894" y1="-2.14577e-05" x2="358.996"
            y2="397.803" gradientUnits="userSpaceOnUse">
            <stop stop-color="#E4003C" />
            <stop offset="1" stop-color="#3C398D" />
        </linearGradient>
    </defs>
</svg>
    