<svg width="32" height="32" viewBox="0 0 32 32" fill="none" xmlns="http://www.w3.org/2000/svg">
  <path fill-rule="evenodd" clip-rule="evenodd"
    d="M31.7812 15.2353L31.777 15.2297L31.7629 15.2113C31.751 15.1958 31.7341 15.1739 31.7122 15.146C31.6685 15.0902 31.6051 15.0103 31.5228 14.9092C31.3584 14.7072 31.1183 14.4204 30.8094 14.0728C30.1923 13.3785 29.2967 12.4373 28.1769 11.4435C25.3859 8.96709 21.0185 6 15.9998 6C11.4982 6 7.5264 8.3865 4.75639 10.6479C3.35695 11.7904 2.22805 12.9306 1.44851 13.7853C1.05812 14.2133 0.753735 14.5714 0.5452 14.8249C0.443252 14.9488 0.281119 15.1548 0.222167 15.2297L0.218245 15.2347C-0.0708304 15.6172 -0.0736347 16.1488 0.215418 16.5313L0.218155 16.5349L0.223339 16.5417L0.240996 16.5647C0.255987 16.5842 0.277397 16.6118 0.305071 16.6469C0.360414 16.7173 0.440854 16.818 0.54516 16.9448C0.753693 17.1983 1.05808 17.5565 1.44847 17.9845C2.22801 18.8393 3.3569 19.9796 4.75634 21.1222C7.52634 23.3839 11.4982 25.7708 15.9998 25.7708C19.2769 25.7708 22.2676 24.5047 24.7032 22.9616C26.8441 21.6048 28.6085 20.0012 29.833 18.7451C30.447 18.1152 30.9299 17.568 31.2612 17.1758C31.4269 16.9796 31.555 16.8218 31.6428 16.7115C31.6868 16.6563 31.7207 16.613 31.7442 16.5826L31.7718 16.5469L31.7796 16.5365L31.7829 16.5322C32.0721 16.1496 32.0725 15.6206 31.7833 15.238L31.7812 15.2353ZM2.45501 15.8849C2.61431 16.0715 2.80776 16.2924 3.03302 16.5394C3.76062 17.3372 4.81352 18.4003 6.11269 19.4611C8.73989 21.6062 12.2325 23.6262 15.9998 23.6262C18.7274 23.6262 21.3179 22.5676 23.5553 21.1501C25.5115 19.9104 27.1467 18.4285 28.2973 17.2481C28.8231 16.7089 29.2438 16.2365 29.544 15.8849C29.4445 15.7684 29.3318 15.6386 29.2064 15.4975C28.6329 14.8521 27.7971 13.9737 26.7535 13.0476C24.0748 10.6709 20.2124 8.14457 15.9998 8.14457C12.2324 8.14457 8.73983 10.1643 6.11264 12.3092C4.81347 13.3698 3.76057 14.4328 3.03297 15.2305C2.80774 15.4774 2.6143 15.6983 2.45501 15.8849Z"
    fill="currentColor" />
  <path fill-rule="evenodd" clip-rule="evenodd"
    d="M15.9998 11.1748C13.3552 11.1748 11.1344 13.2423 11.1344 15.8857C11.1344 16.7358 11.3641 17.5263 11.7637 18.2077C12.6067 19.645 14.2057 20.5966 15.9998 20.5966C16.9259 20.5966 17.8001 20.343 18.5451 19.8999C19.9274 19.0778 20.8651 17.6033 20.8651 15.8857C20.8651 13.2423 18.6444 11.1748 15.9998 11.1748ZM15.9998 13.3193C14.4547 13.3193 13.279 14.5099 13.279 15.8857C13.279 17.2614 14.4547 18.452 15.9998 18.452C17.5448 18.452 18.7205 17.2615 18.7205 15.8857C18.7205 14.5099 17.5448 13.3193 15.9998 13.3193Z"
    fill="currentColor" />
</svg>
  