<svg width="32" height="32" viewBox="0 0 32 32" fill="none" xmlns="http://www.w3.org/2000/svg">
    <path fill-rule="evenodd" clip-rule="evenodd"
        d="M13.4194 5.92611C13.4194 2.65331 15.7301 0.000183105 18.5806 0.000183105H26.8387C29.6892 0.000183105 32 2.65331 32 5.92611V26.0743C32 29.3471 29.6892 32.0002 26.8387 32.0002H18.5806C15.7301 32.0002 13.4194 29.3471 13.4194 26.0743V21.3335L16.5161 21.3335V26.0743C16.5161 27.3834 17.4404 28.4446 18.5806 28.4446H26.8387C27.9789 28.4446 28.9032 27.3834 28.9032 26.0743V5.92611C28.9032 4.61699 27.9789 3.55574 26.8387 3.55574H18.5806C17.4404 3.55574 16.5161 4.61699 16.5161 5.92611V10.6669L13.4194 10.6669V5.92611Z"
        fill="currentColor" />
    <path
        d="M22.7097 17.6086V14.3918H5.28591L9.59473 9.00126L7.24728 6.93352L0 16.0002L7.24728 25.0669L9.59473 22.9991L5.28595 17.6086H22.7097Z"
        fill="currentColor" />
</svg>
    