<svg width="32" height="32" viewBox="0 0 32 32" fill="none" xmlns="http://www.w3.org/2000/svg">
<path d="M6 6H19V9H6V6Z" fill="currentColor"/>
<path d="M6 12H19V15H6V12Z" fill="currentColor"/>
<path d="M6 18H13V21H6V18Z" fill="currentColor"/>
<path d="M15 18H19V21H15V18Z" fill="currentColor"/>
<path fill-rule="evenodd" clip-rule="evenodd" d="M8.25618 32C3.78332 32 0 29.09 0 24.6104V0H24.7924V26.2644C24.7924 27.8861 25.8559 28.8428 26.8699 28.8428C27.8839 28.8428 28.9476 27.5281 28.9476 25.9063V5.09347H32V25.9064C32 29.1737 29.7032 31.8224 26.87 31.8224L8.25618 32ZM8.25618 28.8428C5.1811 28.8428 3.05825 27.1271 3.05825 24.0474V3.02723H21.74C21.7761 9.62145 21.8254 22.4649 21.7609 25.3688C21.755 25.6371 21.748 25.8205 21.74 25.9064C21.74 26.9751 21.9858 27.9776 22.4156 28.8428H8.25618Z" fill="currentColor"/>
</svg>
