<svg width="32" height="32" viewBox="0 0 32 32" fill="none" xmlns="http://www.w3.org/2000/svg">
    <g clip-path="url(#clip0_164_19)">
        <path
            d="M10.2126 15.0949C10.5405 14.761 11.0722 14.761 11.4001 15.0949L14.025 17.756L20.2306 11.4369C20.5585 11.103 21.0901 11.103 21.418 11.4369L21.9674 11.9964C22.2953 12.3303 22.2953 12.8716 21.9674 13.2056L14.6129 20.6946C14.285 21.0285 13.7533 21.0285 13.4254 20.6946L9.66316 16.8635C9.33526 16.5296 9.33526 15.9882 9.66316 15.6543L10.2126 15.0949Z"
            fill="currentColor" />
        <path
            d="M16 30.9333C24.2474 30.9333 30.9333 24.2474 30.9333 16C30.9333 7.75253 24.2474 1.06665 16 1.06665C7.75253 1.06665 1.06665 7.75253 1.06665 16C1.06665 24.2474 7.75253 30.9333 16 30.9333Z"
            stroke="currentColor" stroke-width="2" stroke-dasharray="4 4" />
    </g>
    <defs>
        <clipPath id="clip0_164_19">
            <rect width="32" height="32" fill="currentColor" />
        </clipPath>
    </defs>
</svg>
    