<svg width="32" height="32" viewBox="0 0 32 32" fill="none" xmlns="http://www.w3.org/2000/svg">
    <g clip-path="url(#clip0_164_24)">
        <path
            d="M16 30.9333C24.2474 30.9333 30.9333 24.2474 30.9333 16C30.9333 7.75253 24.2474 1.06665 16 1.06665C7.75253 1.06665 1.06665 7.75253 1.06665 16C1.06665 24.2474 7.75253 30.9333 16 30.9333Z"
            stroke="currentColor" stroke-width="2" />
        <path
            d="M10.3992 15.1291C10.7271 14.7952 11.2588 14.7952 11.5866 15.1291L14.2117 17.7902L20.4173 11.4712C20.7452 11.1373 21.2768 11.1373 21.6047 11.4712L22.154 12.0306C22.482 12.3645 22.482 12.9058 22.154 13.2398L14.7996 20.7289C14.4717 21.0627 13.94 21.0627 13.6121 20.7289L9.8498 16.8977C9.52191 16.5639 9.52191 16.0224 9.8498 15.6886L10.3992 15.1291Z"
            fill="currentColor" />
    </g>
    <defs>
        <clipPath id="clip0_164_24">
            <rect width="32" height="32" fill="currentColor" />
        </clipPath>
    </defs>
</svg>
    