<svg width="32" height="32" viewBox="0 0 32 32" fill="none" xmlns="http://www.w3.org/2000/svg">
    <path
        d="M21 16.0002C21 18.7616 18.7614 21.0002 16 21.0002C13.2386 21.0002 11 18.7616 11 16.0002C11 13.2388 13.2386 11.0002 16 11.0002C18.7614 11.0002 21 13.2388 21 16.0002Z"
        fill="currentColor" />
    <path d="M14 0.000183105H18V7.00018H14V0.000183105Z" fill="currentColor" />
    <path d="M14 25.0002H18V32.0002H14V25.0002Z" fill="currentColor" />
    <path d="M25 18.0002V14.0002H32V18.0002H25Z" fill="currentColor" />
    <path d="M0 18.0002V14.0002H7V18.0002H0Z" fill="currentColor" />
    <path d="M25.9037 3.27551L28.7312 6.10486L23.7798 11.053L20.9523 8.22365L25.9037 3.27551Z"
        fill="currentColor" />
    <path d="M8.22021 20.9474L11.0477 23.7767L6.09636 28.7249L3.26885 25.8955L8.22021 20.9474Z"
        fill="currentColor" />
    <path d="M20.9473 23.78L23.7766 20.9525L28.7247 25.9038L25.8954 28.7313L20.9473 23.78Z"
        fill="currentColor" />
    <path d="M3.27527 6.0965L6.10462 3.26899L11.0528 8.22035L8.2234 11.0479L3.27527 6.0965Z"
        fill="currentColor" />
</svg>
    