<svg width="32" height="32" viewBox="0 0 32 32" fill="none" xmlns="http://www.w3.org/2000/svg">
    <g clip-path="url(#clip0_228_264)">
        <path
            d="M11.856 14.4L15.44 17.984L14.112 21.184L9.6 16.64L4.32 21.92L2.08 19.648L7.328 14.4L5.92 12.992C5.072 12.144 4.32 10.912 3.84 9.6H7.36C7.6 10.048 7.888 10.448 8.176 10.72L9.6 12.16L11.008 10.752C11.968 9.76 12.8 7.744 12.8 6.4H0V3.2H8V0H11.2V3.2H19.2V6.4H16C16 8.592 14.816 11.44 13.28 12.992L11.84 14.4H11.856ZM18 27.2L16 32H12.8L20.8 12.8H24L32 32H28.8L26.8 27.2H18ZM19.328 24H25.472L22.4 16.64L19.328 24Z"
            fill="currentColor" />
    </g>
</svg>