<svg width="32" height="32" viewBox="0 0 32 32" fill="none" xmlns="http://www.w3.org/2000/svg">
    <g clip-path="url(#clip0_113_294)">
        <mask id="mask0_113_294" style="mask-type:luminance" maskUnits="userSpaceOnUse" x="0" y="3"
            width="32" height="28">
            <path d="M32 30.0001H0V3.00012H32V30.0001Z" fill="white" />
        </mask>
        <g mask="url(#mask0_113_294)">
            <path
                d="M24.0559 28.6258C20.4402 27.6888 19.0443 27.3001 19.0443 27.2307C19.0443 27.1752 19.1631 27.0711 19.3042 26.9947C19.4453 26.9184 20.017 26.6199 20.5664 26.3214C21.1158 26.0299 21.7617 25.6898 22.0068 25.5649C22.4745 25.322 23.1873 24.9333 23.2244 24.8986C23.2467 24.8777 23.0313 24.5029 22.6453 23.8991C22.5413 23.7186 22.43 23.5312 22.4003 23.4757C22.3706 23.4202 22.274 23.2605 22.1924 23.1286C22.1033 22.9968 21.9548 22.7469 21.8508 22.5734C21.7543 22.3998 21.6429 22.2124 21.6058 22.1569C21.3757 21.8238 20.8634 20.9631 20.8634 20.9284C20.8634 20.9006 20.8188 20.8312 20.7594 20.7757C20.7 20.7132 20.5664 20.5119 20.455 20.3176C20.3511 20.1302 20.1877 19.8595 20.1061 19.7276C20.0244 19.5957 19.8759 19.3459 19.7719 19.1723C19.6754 18.9988 19.5269 18.7698 19.4527 18.6518C19.3784 18.5407 19.2225 18.2908 19.1112 18.0965C18.7696 17.5135 18.7102 17.4094 18.5469 17.1595C18.4652 17.0276 18.3167 16.7777 18.2128 16.6042C18.1163 16.4307 17.9678 16.2016 17.8935 16.0836C17.8193 15.9726 17.6634 15.7158 17.5594 15.5284C17.1956 14.8898 17.2179 14.9037 16.8095 15.1327C16.6091 15.2369 16.3938 15.3479 16.3344 15.3757C16.275 15.4034 16.1265 15.4867 16.0003 15.5561C15.8815 15.6325 15.629 15.7713 15.4434 15.8615C15.2578 15.9587 14.9905 16.0975 14.8494 16.1739C14.7084 16.2502 14.4411 16.396 14.2555 16.4862C14.0699 16.5834 13.8026 16.7222 13.6615 16.8055C13.5204 16.8818 13.3497 16.9721 13.2903 16.9998C13.1863 17.0484 12.1914 17.5759 11.9539 17.7148C11.8945 17.7495 11.694 17.8536 11.5084 17.9438C11.3228 18.041 11.0555 18.1798 10.9144 18.2631C10.7733 18.3394 10.6026 18.4297 10.5432 18.4574C10.4838 18.4852 10.2016 18.6379 9.91212 18.7906C9.62998 18.9502 9.34042 19.096 9.28103 19.1238C9.22163 19.1515 9.07314 19.2348 8.94692 19.3042C8.66479 19.4777 8.47175 19.4847 8.41235 19.332C8.38265 19.2626 8.16734 18.9016 7.92975 18.5268C7.69216 18.152 7.49912 17.8327 7.49912 17.8119C7.49912 17.798 7.35063 17.5482 7.16502 17.2567C6.9794 16.9721 6.83091 16.7222 6.83091 16.7083C6.83091 16.6944 6.63045 16.3682 6.38543 15.9795C6.14042 15.5908 5.93996 15.2646 5.93996 15.2438C5.93996 15.2299 5.77662 14.9592 5.58358 14.6469C5.13068 13.9112 4.55898 12.9811 4.3214 12.5785C4.21745 12.405 3.7497 11.6415 3.28195 10.878C2.81421 10.1145 2.32418 9.31632 2.20539 9.10809C2.07917 8.89986 1.84901 8.532 1.69309 8.28907C1.53717 8.05308 1.41096 7.84485 1.41096 7.82403C1.41096 7.81015 1.26246 7.55333 1.07685 7.26182C0.891235 6.97724 0.742743 6.72737 0.742743 6.70655C0.742743 6.69267 0.579402 6.42197 0.371514 6.09575C-0.0071404 5.49189 -0.111085 5.08238 0.111653 5.08238C0.171049 5.08238 0.223022 5.05462 0.223022 5.01297C0.223022 4.97827 0.44576 4.83251 0.720469 4.68675C1.0026 4.54099 1.28474 4.39524 1.35156 4.35359C1.75249 4.13148 2.19054 3.91632 2.67314 3.70115C2.85875 3.61786 3.05922 3.52069 3.11861 3.48598C3.60121 3.20141 4.04669 3.00012 4.18776 3.00012C4.3511 3.00012 4.52929 3.13894 4.63323 3.34716C4.66293 3.40269 4.72233 3.51374 4.7743 3.59009C5.39054 4.52711 5.36827 4.49241 5.71722 5.11709C5.88056 5.42249 6.08103 5.76953 6.1627 5.88058C6.23694 5.99858 6.34831 6.16516 6.40771 6.26233C6.62302 6.6302 6.93485 7.13688 7.12789 7.43534C7.23184 7.6158 7.34321 7.8032 7.37291 7.85873C7.41003 7.91426 7.46943 8.02531 7.5214 8.10166C7.57337 8.17801 7.74414 8.45565 7.90748 8.72634C8.07082 8.99009 8.24158 9.26773 8.27871 9.3302C8.32325 9.39267 8.44205 9.60089 8.54599 9.78135C8.65736 9.96182 8.81328 10.2256 8.90237 10.3574C8.98404 10.4893 9.08056 10.6489 9.11026 10.7045C9.16223 10.8086 9.73393 11.7525 9.87499 11.9538C9.91212 12.0094 10.0309 12.2176 10.1422 12.405C10.4689 12.9811 10.5061 13.0158 10.6174 12.8908C10.6694 12.8353 10.7362 12.7867 10.7659 12.7867C10.8179 12.7867 11.6569 12.3495 12.1023 12.0926C12.1617 12.0579 12.3622 11.9538 12.5478 11.8636C12.7334 11.7664 13.0007 11.6276 13.1418 11.5443C13.2829 11.468 13.4536 11.3777 13.513 11.35C13.5724 11.3222 13.862 11.1764 14.1441 11.0168C14.4337 10.8641 14.7158 10.7114 14.7752 10.6836C14.8346 10.6559 15.0054 10.5657 15.1464 10.4893C15.2875 10.406 15.5548 10.2672 15.7404 10.17C15.926 10.0798 16.1933 9.93405 16.3344 9.8577C16.4754 9.78135 16.7427 9.64254 16.9283 9.54536C17.1139 9.45513 17.3664 9.31632 17.4852 9.24691C17.6114 9.1775 17.7896 9.07338 17.8935 9.01786C18.6731 8.61529 18.829 8.52506 18.9107 8.46953C19.0443 8.37236 19.2151 8.44871 19.3042 8.63611C19.3487 8.72634 19.4081 8.84434 19.4527 8.89986C19.5863 9.09421 20.1952 10.0937 20.1952 10.1214C20.1952 10.1353 20.3956 10.4615 20.6406 10.8502C20.8856 11.232 21.0861 11.5651 21.0861 11.579C21.0861 11.5929 21.2346 11.8428 21.4202 12.1343C21.6058 12.4189 21.7543 12.6687 21.7543 12.6896C21.7543 12.7034 21.9548 13.0297 22.1998 13.4184C22.4448 13.8001 22.6453 14.1263 22.6453 14.1402C22.6453 14.1541 22.7492 14.3345 22.8754 14.5358C23.0016 14.7371 23.3952 15.3757 23.7367 15.9448C24.0856 16.5209 24.4346 17.0831 24.5088 17.1942C24.5831 17.3122 24.6722 17.451 24.7019 17.5065C24.7316 17.5621 24.8949 17.8397 25.0731 18.1173C25.2513 18.4019 25.3924 18.6379 25.3924 18.6587C25.3924 18.6726 25.5928 18.9988 25.8378 19.3875C26.0829 19.7693 26.2833 20.0955 26.2833 20.1094C26.2833 20.1232 26.3873 20.3037 26.5135 20.505C26.6397 20.7063 26.8624 21.0741 27.0109 21.324C27.1594 21.5739 27.3822 21.9348 27.5084 22.1361L27.7385 22.497L28.1098 22.3166C28.3102 22.2194 28.5998 22.0597 28.7483 21.9695C28.9042 21.8862 29.0453 21.8099 29.0601 21.8099C29.075 21.8099 29.4313 21.6225 29.8471 21.3934C30.2629 21.1644 30.6119 20.977 30.6341 20.977C30.649 20.977 30.9385 20.8243 31.2875 20.6299C31.6365 20.4425 31.9334 20.2829 31.9557 20.2829C32.0968 20.2829 31.8592 21.1991 30.6416 25.315C29.6467 28.6744 29.2606 29.896 29.1789 29.9099C29.1195 29.9168 26.8105 29.3338 24.0559 28.6258Z"
                fill="currentColor" />
        </g>
    </g>
</svg>
    