<svg width="32" height="32" viewBox="0 0 32 32" fill="none" xmlns="http://www.w3.org/2000/svg">
    <mask id="mask0_113_305" style="mask-type:luminance" maskUnits="userSpaceOnUse" x="0" y="3"
        width="32" height="28">
        <path d="M32 3.00012H0V30.0001H32V3.00012Z" fill="white" />
    </mask>
    <g mask="url(#mask0_113_305)">
        <path
            d="M24.0559 4.37439C20.4402 5.31141 19.0443 5.7001 19.0443 5.76951C19.0443 5.82503 19.1631 5.92915 19.3042 6.0055C19.4453 6.08185 20.017 6.3803 20.5664 6.67876C21.1158 6.97028 21.7617 7.31038 22.0068 7.43532C22.4745 7.67825 23.1873 8.06694 23.2244 8.10164C23.2467 8.12246 23.0313 8.49727 22.6453 9.10113C22.5413 9.28159 22.43 9.46899 22.4003 9.52452C22.3706 9.58005 22.274 9.73969 22.1924 9.87156C22.1033 10.0034 21.9548 10.2533 21.8508 10.4268C21.7543 10.6004 21.6429 10.7878 21.6058 10.8433C21.3757 11.1764 20.8634 12.0371 20.8634 12.0718C20.8634 12.0996 20.8188 12.169 20.7594 12.2245C20.7 12.287 20.5664 12.4883 20.455 12.6826C20.3511 12.87 20.1877 13.1407 20.1061 13.2726C20.0244 13.4045 19.8759 13.6543 19.7719 13.8279C19.6754 14.0014 19.5269 14.2304 19.4527 14.3484C19.3784 14.4595 19.2225 14.7094 19.1112 14.9037C18.7696 15.4867 18.7102 15.5908 18.5469 15.8407C18.4652 15.9726 18.3167 16.2225 18.2128 16.396C18.1163 16.5695 17.9678 16.7986 17.8935 16.9166C17.8193 17.0276 17.6634 17.2844 17.5594 17.4718C17.1956 18.1104 17.2179 18.0965 16.8095 17.8675C16.6091 17.7633 16.3938 17.6523 16.3344 17.6245C16.275 17.5968 16.1265 17.5135 16.0003 17.4441C15.8815 17.3677 15.629 17.2289 15.4434 17.1387C15.2578 17.0415 14.9905 16.9027 14.8494 16.8263C14.7084 16.75 14.4411 16.6042 14.2555 16.514C14.0699 16.4168 13.8026 16.278 13.6615 16.1947C13.5204 16.1184 13.3497 16.0281 13.2903 16.0004C13.1863 15.9518 12.1914 15.4243 11.9539 15.2854C11.8945 15.2507 11.694 15.1466 11.5084 15.0564C11.3228 14.9592 11.0555 14.8204 10.9144 14.7371C10.7733 14.6608 10.6026 14.5705 10.5432 14.5428C10.4838 14.515 10.2016 14.3623 9.91212 14.2096C9.62998 14.05 9.34042 13.9042 9.28103 13.8764C9.22163 13.8487 9.07314 13.7654 8.94692 13.696C8.66479 13.5225 8.47175 13.5155 8.41235 13.6682C8.38265 13.7376 8.16734 14.0986 7.92975 14.4734C7.69216 14.8482 7.49912 15.1675 7.49912 15.1883C7.49912 15.2022 7.35063 15.452 7.16502 15.7435C6.9794 16.0281 6.83091 16.278 6.83091 16.2919C6.83091 16.3058 6.63045 16.632 6.38543 17.0207C6.14042 17.4094 5.93996 17.7356 5.93996 17.7564C5.93996 17.7703 5.77662 18.041 5.58358 18.3533C5.13068 19.089 4.55898 20.0191 4.3214 20.4217C4.21745 20.5952 3.7497 21.3587 3.28195 22.1222C2.81421 22.8857 2.32418 23.6839 2.20539 23.8921C2.07917 24.1004 1.84901 24.4682 1.69309 24.7112C1.53717 24.9471 1.41096 25.1554 1.41096 25.1762C1.41096 25.1901 1.26246 25.4469 1.07685 25.7384C0.891235 26.023 0.742743 26.2729 0.742743 26.2937C0.742743 26.3076 0.579402 26.5782 0.371514 26.9045C-0.0071404 27.5083 -0.111085 27.9178 0.111653 27.9178C0.171049 27.9178 0.223022 27.9456 0.223022 27.9872C0.223022 28.022 0.44576 28.1677 0.720469 28.3135C1.0026 28.4592 1.28474 28.605 1.35156 28.6466C1.75249 28.8687 2.19054 29.0839 2.67314 29.2991C2.85875 29.3824 3.05922 29.4795 3.11861 29.5142C3.60121 29.7988 4.04669 30.0001 4.18776 30.0001C4.3511 30.0001 4.52929 29.8613 4.63323 29.6531C4.66293 29.5975 4.72233 29.4865 4.7743 29.4101C5.39054 28.4731 5.36827 28.5078 5.71722 27.8831C5.88056 27.5777 6.08103 27.2307 6.1627 27.1196C6.23694 27.0016 6.34831 26.8351 6.40771 26.7379C6.62302 26.37 6.93485 25.8633 7.12789 25.5649C7.23184 25.3844 7.34321 25.197 7.37291 25.1415C7.41003 25.086 7.46943 24.9749 7.5214 24.8986C7.57337 24.8222 7.74414 24.5446 7.90748 24.2739C8.07082 24.0101 8.24158 23.7325 8.27871 23.67C8.32325 23.6076 8.44205 23.3993 8.54599 23.2189C8.65736 23.0384 8.81328 22.7746 8.90237 22.6428C8.98404 22.5109 9.08056 22.3513 9.11026 22.2957C9.16223 22.1916 9.73393 21.2477 9.87499 21.0464C9.91212 20.9908 10.0309 20.7826 10.1422 20.5952C10.4689 20.0191 10.5061 19.9844 10.6174 20.1094C10.6694 20.1649 10.7362 20.2135 10.7659 20.2135C10.8179 20.2135 11.6569 20.6507 12.1023 20.9076C12.1617 20.9423 12.3622 21.0464 12.5478 21.1366C12.7334 21.2338 13.0007 21.3726 13.1418 21.4559C13.2829 21.5322 13.4536 21.6225 13.513 21.6502C13.5724 21.678 13.862 21.8238 14.1441 21.9834C14.4337 22.1361 14.7158 22.2888 14.7752 22.3166C14.8346 22.3443 15.0054 22.4345 15.1464 22.5109C15.2875 22.5942 15.5548 22.733 15.7404 22.8302C15.926 22.9204 16.1933 23.0662 16.3344 23.1425C16.4754 23.2189 16.7427 23.3577 16.9283 23.4549C17.1139 23.5451 17.3664 23.6839 17.4852 23.7533C17.6114 23.8227 17.7896 23.9268 17.8935 23.9824C18.6731 24.3849 18.829 24.4752 18.9107 24.5307C19.0443 24.6279 19.2151 24.5515 19.3042 24.3641C19.3487 24.2739 19.4081 24.1559 19.4527 24.1004C19.5863 23.906 20.1952 22.9065 20.1952 22.8788C20.1952 22.8649 20.3956 22.5387 20.6406 22.15C20.8856 21.7682 21.0861 21.4351 21.0861 21.4212C21.0861 21.4073 21.2346 21.1574 21.4202 20.8659C21.6058 20.5813 21.7543 20.3315 21.7543 20.3106C21.7543 20.2968 21.9548 19.9705 22.1998 19.5818C22.4448 19.2001 22.6453 18.8739 22.6453 18.86C22.6453 18.8461 22.7492 18.6657 22.8754 18.4644C23.0016 18.2631 23.3952 17.6245 23.7367 17.0554C24.0856 16.4793 24.4346 15.9171 24.5088 15.806C24.5831 15.688 24.6722 15.5492 24.7019 15.4937C24.7316 15.4381 24.8949 15.1605 25.0731 14.8829C25.2513 14.5983 25.3924 14.3623 25.3924 14.3415C25.3924 14.3276 25.5928 14.0014 25.8378 13.6127C26.0829 13.2309 26.2833 12.9047 26.2833 12.8908C26.2833 12.877 26.3873 12.6965 26.5135 12.4952C26.6397 12.2939 26.8624 11.9261 27.0109 11.6762C27.1594 11.4263 27.3822 11.0654 27.5084 10.8641L27.7385 10.5032L28.1098 10.6836C28.3102 10.7808 28.5998 10.9405 28.7483 11.0307C28.9042 11.114 29.0453 11.1903 29.0601 11.1903C29.075 11.1903 29.4313 11.3777 29.8471 11.6068C30.2629 11.8358 30.6119 12.0232 30.6341 12.0232C30.649 12.0232 30.9385 12.1759 31.2875 12.3703C31.6365 12.5577 31.9334 12.7173 31.9557 12.7173C32.0968 12.7173 31.8592 11.8011 30.6416 7.68519C29.6467 4.32581 29.2606 3.10421 29.1789 3.09033C29.1195 3.08339 26.8105 3.66642 24.0559 4.37439Z"
            fill="currentColor" />
    </g>
</svg>
    