<svg width="32" height="33" viewBox="0 0 32 33" fill="none" xmlns="http://www.w3.org/2000/svg">
    <path d="M6 16L26.5 16" stroke="currentColor" stroke-width="3" />
    <path d="M30.5 9V32.5" stroke="currentColor" stroke-width="3" />
    <path
        d="M16 2L8 2H5.92705C5.3174 2 4.71611 2.14194 4.17082 2.41459L3.78885 2.60557C2.69253 3.15374 2 4.27427 2 5.5V5.5C2 6.72573 2.69253 7.84626 3.78885 8.39443L4.17082 8.58541C4.71611 8.85806 5.3174 9 5.92705 9H8L16 9L32 9"
        stroke="currentColor" stroke-width="3" />
    <path
        d="M2 24L2 24.3589C2 25.3514 2.22249 26.3314 2.6511 27.2266L3.18412 28.34C3.96236 29.9655 5.60456 31 7.40678 31V31H15.2712L31 31"
        stroke="currentColor" stroke-width="3" />
    <path d="M7 2L27.5 2" stroke="currentColor" stroke-width="3" />
    <path d="M26 9L26 1" stroke="currentColor" stroke-width="3" />
    <path d="M2 24L2 6" stroke="currentColor" stroke-width="3" />
</svg>
    