<svg width="326" height="100" viewBox="0 0 326 100" fill="none" xmlns="http://www.w3.org/2000/svg">
    <path d="M38.2842 41.3817C38.0403 41.4541 38.5512 41.3817 38.2842 41.3817V41.3817Z"
        fill="currentColor" />
    <path d="M62.2195 41.3817C61.9525 41.3817 62.4634 41.4541 62.2195 41.3817V41.3817Z"
        fill="currentColor" />
    <path fill-rule="evenodd" clip-rule="evenodd"
        d="M42.9548 53.3869C44.4605 53.3869 45.6811 54.6217 45.6811 56.145C45.6811 56.859 45.413 57.5096 44.9729 57.9994L50.2525 76.2102L55.5314 57.9994C55.0915 57.5096 54.8233 56.859 54.8233 56.145C54.8233 54.6217 56.0438 53.3869 57.5494 53.3869C58.2332 53.3869 58.8582 53.6416 59.3368 54.0624C62.1625 52.8162 64.6115 50.7809 66.6813 48.2726L62.2195 41.3817C61.0883 41.0459 60.2623 39.988 60.2623 38.7349C60.2623 37.2117 61.4828 35.9768 62.9884 35.9768C63.1379 35.9768 63.2454 35.9951 63.3857 36.019L63.4009 36.0215L70.8477 28.7311L73.6075 26C75.6868 35.7651 73.9544 43.1187 70.354 48.4126L71.9835 50.9097C72.1364 51.1707 72.2504 51.5199 72.2504 51.8475C72.2504 52.2786 72.0812 52.6927 71.8293 52.9951L64.2603 60.834C64.3068 61.0346 64.3314 61.2435 64.3314 61.4582C64.3314 62.3949 63.8635 63.2222 63.1488 63.7188L63.5068 67.0476C64.5388 67.4435 65.2715 68.4443 65.2715 69.6164C65.2715 71.1352 64.0412 72.3664 62.5236 72.3664C62.294 72.3664 62.071 72.3382 61.8578 72.2851L50.2525 83.9086L38.646 72.2851C38.4327 72.3382 38.2097 72.3664 37.9801 72.3664C36.4623 72.3664 35.2319 71.1352 35.2319 69.6164C35.2319 68.4443 35.9647 67.4435 36.9968 67.0476L37.3548 63.7188C36.6401 63.2222 36.1721 62.3949 36.1721 61.4582C36.1721 61.2435 36.1967 61.0346 36.2432 60.834L28.6734 52.9951C28.4215 52.6927 28.2523 52.2786 28.2523 51.8475C28.2523 51.5199 28.3663 51.1707 28.5192 50.9097L30.1489 48.4126C26.5481 43.1187 24.8155 35.7651 26.895 26L29.6551 28.7311L37.1027 36.0215L37.1179 36.019C37.2582 35.9951 37.3657 35.9768 37.5152 35.9768C39.021 35.9768 40.2416 37.2117 40.2416 38.7349C40.2416 39.988 39.4155 41.0459 38.2842 41.3817L33.8219 48.2726C35.892 50.7809 38.3412 52.8162 41.1672 54.0624C41.6458 53.6416 42.2709 53.3869 42.9548 53.3869ZM41.6684 61.4582C41.6684 59.9395 40.438 58.7082 38.9202 58.7082C38.7449 58.7082 38.5733 58.7247 38.4071 58.7561L31.5921 51.6996L32.1143 50.9097C34.5393 53.5887 37.329 55.7478 40.4132 57.1453C40.7038 57.9001 41.3134 58.4936 42.0744 58.7561L47.2202 76.4512L40.6885 70.0846C40.7146 69.9324 40.7282 69.776 40.7282 69.6164C40.7282 68.8685 40.4299 68.1903 39.9458 67.6946L40.3545 63.8045C41.1426 63.321 41.6684 62.4511 41.6684 61.4582ZM34.8779 38.033C34.8198 38.2571 34.7889 38.4923 34.7889 38.7349C34.7889 39.3615 34.9954 39.9392 35.3433 40.4023L31.97 45.6043C29.9553 42.1155 28.8509 37.7322 29.1917 32.4642L34.8779 38.033ZM42.9619 57.6488C43.7903 57.6488 44.4619 56.9772 44.4619 56.1488C44.4619 55.3204 43.7903 54.6488 42.9619 54.6488C42.1335 54.6488 41.4619 55.3204 41.4619 56.1488C41.4619 56.9772 42.1335 57.6488 42.9619 57.6488ZM38.8687 62.9679C39.6971 62.9679 40.3687 62.2963 40.3687 61.4679C40.3687 60.6395 39.6971 59.9679 38.8687 59.9679C38.0402 59.9679 37.3687 60.6395 37.3687 61.4679C37.3687 62.2963 38.0402 62.9679 38.8687 62.9679ZM37.4792 40.2018C38.3077 40.2018 38.9792 39.5302 38.9792 38.7018C38.9792 37.8734 38.3077 37.2018 37.4792 37.2018C36.6508 37.2018 35.9792 37.8734 35.9792 38.7018C35.9792 39.5302 36.6508 40.2018 37.4792 40.2018ZM37.9822 71.1044C38.8106 71.1044 39.4822 70.4328 39.4822 69.6044C39.4822 68.7759 38.8106 68.1044 37.9822 68.1044C37.1538 68.1044 36.4822 68.7759 36.4822 69.6044C36.4822 70.4328 37.1538 71.1044 37.9822 71.1044ZM58.8356 61.4582C58.8356 59.9395 60.0659 58.7082 61.5835 58.7082C61.7589 58.7082 61.9304 58.7247 62.0967 58.7561L68.9109 51.6996L68.3888 50.9097C65.9641 53.5887 63.1747 55.7478 60.0907 57.1453C59.8002 57.9001 59.1907 58.4936 58.4297 58.7561L53.2844 76.4512L59.8154 70.0846C59.7893 69.9324 59.7757 69.776 59.7757 69.6164C59.7757 68.8685 60.0741 68.1903 60.5581 67.6946L60.1494 63.8045C59.3613 63.321 58.8356 62.4511 58.8356 61.4582ZM65.6254 38.033C65.6835 38.2571 65.7145 38.4923 65.7145 38.7349C65.7145 39.3615 65.508 39.9392 65.1601 40.4023L68.5331 45.6043C70.5475 42.1155 71.6518 37.7322 71.311 32.4642L65.6254 38.033ZM57.5423 57.6488C56.7139 57.6488 56.0424 56.9772 56.0424 56.1488C56.0424 55.3204 56.7139 54.6488 57.5423 54.6488C58.3706 54.6488 59.0421 55.3204 59.0421 56.1488C59.0421 56.9772 58.3706 57.6488 57.5423 57.6488ZM61.6351 62.9679C60.8068 62.9679 60.1353 62.2963 60.1353 61.4679C60.1353 60.6395 60.8068 59.9679 61.6351 59.9679C62.4635 59.9679 63.135 60.6395 63.135 61.4679C63.135 62.2963 62.4635 62.9679 61.6351 62.9679ZM63.0244 40.2018C62.196 40.2018 61.5245 39.5302 61.5245 38.7018C61.5245 37.8734 62.196 37.2018 63.0244 37.2018C63.8527 37.2018 64.5242 37.8734 64.5242 38.7018C64.5242 39.5302 63.8527 40.2018 63.0244 40.2018ZM62.5215 71.1044C61.6931 71.1044 61.0216 70.4328 61.0216 69.6044C61.0216 68.7759 61.6931 68.1044 62.5215 68.1044C63.3498 68.1044 64.0213 68.7759 64.0213 69.6044C64.0213 70.4328 63.3498 71.1044 62.5215 71.1044Z"
        fill="currentColor" />
    <path
        d="M287.529 57C287.529 59.6 286.713 61.8 285.079 63.6C283.446 65.3667 281.179 66.55 278.279 67.15V75.05H272.579V67.45C268.179 67.0833 264.563 65.5167 261.729 62.75L265.779 58.35C268.179 60.5833 270.946 61.7 274.079 61.7C275.713 61.7 276.996 61.3333 277.929 60.6C278.863 59.8667 279.329 58.8667 279.329 57.6C279.329 56.7667 279.163 56.0833 278.829 55.55C278.496 54.9833 277.896 54.4833 277.029 54.05C276.163 53.5833 274.913 53.1 273.279 52.6C269.613 51.4333 266.996 50.05 265.429 48.45C263.896 46.85 263.129 44.8 263.129 42.3C263.129 39.8 263.996 37.7167 265.729 36.05C267.463 34.35 269.746 33.3 272.579 32.9V25.5H278.279V32.9C281.579 33.4333 284.346 34.7833 286.579 36.95L282.929 41.25C280.729 39.3833 278.313 38.45 275.679 38.45C274.279 38.45 273.179 38.7333 272.379 39.3C271.579 39.8667 271.179 40.6667 271.179 41.7C271.179 42.4333 271.346 43.0333 271.679 43.5C272.046 43.9667 272.679 44.4167 273.579 44.85C274.479 45.25 275.829 45.7333 277.629 46.3C280.996 47.3667 283.479 48.7 285.079 50.3C286.713 51.9 287.529 54.1333 287.529 57Z"
        fill="currentColor" />
    <path fill-rule="evenodd" clip-rule="evenodd"
        d="M0 50C0 22.3858 22.3858 0 50 0C76.0502 0 97.4474 19.9218 99.7877 45.3613L122.325 45.2334C124.257 33.3483 134.569 24.2754 147 24.2754V32H163V40H147V59H163V67H147V74.2754C135.212 74.2754 125.329 66.1165 122.691 55.1376L99.7167 55.3537C97.0453 80.4505 75.8056 100 50 100C22.3858 100 0 77.6142 0 50ZM90 50C90 27.9086 72.0914 10 50 10C27.9086 10 10 27.9086 10 50C10 72.0914 27.9086 90 50 90C72.0914 90 90 72.0914 90 50Z"
        fill="currentColor" />
    <path fill-rule="evenodd" clip-rule="evenodd"
        d="M325.5 50C325.5 77.6142 303.114 100 275.5 100C249.45 100 228.053 80.0782 225.712 54.6387L200.401 54.7415C197.908 65.9197 187.93 74.2754 176 74.2754V24.2754C188.276 24.2754 198.485 33.123 200.599 44.7892L225.783 44.6463C228.455 19.5495 249.694 0 275.5 0C303.114 0 325.5 22.3858 325.5 50ZM235.5 50C235.5 72.0914 253.409 90 275.5 90C297.591 90 315.5 72.0914 315.5 50C315.5 27.9086 297.591 10 275.5 10C253.409 10 235.5 27.9086 235.5 50Z"
        fill="currentColor" />
</svg>
    