<svg width="373" height="43" viewBox="0 0 373 43" fill="none" xmlns="http://www.w3.org/2000/svg">
<path d="M0.285 34V2.275H7.71L16.71 32.965H17.745L26.79 2.275H34.17V34H30.48V5.965L31.11 3.31H30.03L20.94 34H13.515L4.425 3.31H3.39L3.975 5.965V34H0.285ZM46.7573 8.08C44.9123 8.08 43.5173 6.73 43.5173 4.93C43.5173 3.22 44.9123 1.825 46.7573 1.825C48.5573 1.825 49.9973 3.22 49.9973 4.93C49.9973 6.73 48.5573 8.08 46.7573 8.08ZM39.2873 34V30.85H45.5873V14.38L40.9523 14.785V11.635L46.1273 11.185C48.2423 11.005 49.0523 12.175 49.0523 13.885V30.85H55.3523V34H39.2873ZM71.7517 14.335C67.0267 14.335 63.6967 18.07 63.6967 24.1V34H60.0067V11.635H63.6967V15.505L63.1117 18.07H64.1467C65.0467 14.02 67.8817 11.185 72.7417 11.185C77.7817 11.185 81.0667 14.11 81.0667 20.32V34H77.4217V20.815C77.4217 16.135 75.5767 14.335 71.7517 14.335ZM99.768 11.185C104.808 11.185 108.093 14.11 108.093 20.32V34H104.448V20.815C104.448 16.135 102.603 14.335 98.778 14.335C94.053 14.335 90.723 18.07 90.723 24.1V34H87.033V0.924999H90.723V15.505L90.138 18.07H91.173C92.073 14.02 94.908 11.185 99.768 11.185ZM113.247 27.79C113.247 24.235 115.362 21.805 120.582 21.265L129.492 20.41C129.267 16.315 127.062 14.29 123.192 14.29C119.952 14.29 116.937 15.73 116.937 19.96H113.337C113.337 15.325 116.847 11.185 123.192 11.185C129.447 11.185 133.182 15.325 133.182 21.31V30.85H136.467V34H132.507C130.797 34 129.852 33.055 129.852 31.39V30.175L130.437 27.835H129.357C128.502 31.255 126.117 34.45 120.717 34.45C114.237 34.45 113.247 30.13 113.247 27.79ZM116.937 27.34C116.937 29.905 118.557 31.3 121.167 31.3C126.252 31.3 129.492 27.79 129.492 23.155L121.212 24.01C118.377 24.28 116.937 25.135 116.937 27.34ZM158.024 28.195C158.024 31.57 155.909 34.45 149.204 34.45C141.959 34.45 138.989 31.075 138.989 25.765H142.679C142.679 29.635 144.929 31.435 149.249 31.435C152.714 31.435 154.334 30.625 154.334 28.33C154.334 25.405 151.319 24.91 147.674 23.785C143.444 22.435 140.024 21.13 140.024 17.08C140.024 13.525 143.039 11.185 148.169 11.185C155.144 11.185 157.259 15.01 157.259 18.7H153.569C153.569 15.685 151.724 14.2 148.169 14.2C145.694 14.2 143.714 14.92 143.714 16.945C143.714 19.105 145.244 19.78 148.844 20.95C153.254 22.39 158.024 23.38 158.024 28.195ZM177.736 34V2.275H198.526V5.425H181.426V18.07L196.411 17.17V20.365L181.426 21.265V34H177.736ZM208.081 8.08C206.236 8.08 204.841 6.73 204.841 4.93C204.841 3.22 206.236 1.825 208.081 1.825C209.881 1.825 211.321 3.22 211.321 4.93C211.321 6.73 209.881 8.08 208.081 8.08ZM200.611 34V30.85H206.911V14.38L202.276 14.785V11.635L207.451 11.185C209.566 11.005 210.376 12.175 210.376 13.885V30.85H216.676V34H200.611ZM233.075 14.335C228.35 14.335 225.02 18.07 225.02 24.1V34H221.33V11.635H225.02V15.505L224.435 18.07H225.47C226.37 14.02 229.205 11.185 234.065 11.185C239.105 11.185 242.39 14.11 242.39 20.32V34H238.745V20.815C238.745 16.135 236.9 14.335 233.075 14.335ZM247.544 27.79C247.544 24.235 249.659 21.805 254.879 21.265L263.789 20.41C263.564 16.315 261.359 14.29 257.489 14.29C254.249 14.29 251.234 15.73 251.234 19.96H247.634C247.634 15.325 251.144 11.185 257.489 11.185C263.744 11.185 267.479 15.325 267.479 21.31V30.85H270.764V34H266.804C265.094 34 264.149 33.055 264.149 31.39V30.175L264.734 27.835H263.654C262.799 31.255 260.414 34.45 255.014 34.45C248.534 34.45 247.544 30.13 247.544 27.79ZM251.234 27.34C251.234 29.905 252.854 31.3 255.464 31.3C260.549 31.3 263.789 27.79 263.789 23.155L255.509 24.01C252.674 24.28 251.234 25.135 251.234 27.34ZM286.732 14.335C282.007 14.335 278.677 18.07 278.677 24.1V34H274.987V11.635H278.677V15.505L278.092 18.07H279.127C280.027 14.02 282.862 11.185 287.722 11.185C292.762 11.185 296.047 14.11 296.047 20.32V34H292.402V20.815C292.402 16.135 290.557 14.335 286.732 14.335ZM312.544 31.3C315.784 31.3 318.619 29.815 319.249 25.54H322.984C322.444 31.615 317.539 34.135 313.354 34.405L311.284 36.565C312.094 36.16 313.039 35.89 314.209 35.89C315.739 35.89 317.134 36.61 317.134 38.41C317.134 41.875 313.399 42.325 307.729 42.325V39.535C311.824 39.535 314.164 39.58 314.164 38.14C314.164 37.555 313.759 37.24 313.129 37.24C312.319 37.24 311.599 37.42 309.979 38.41L308.404 36.34L310.159 34.27C304.399 33.235 301.114 28.51 301.114 22.795C301.114 16.36 305.299 11.185 312.544 11.185C316.864 11.185 322.399 13.615 322.984 20.095H319.249C318.619 15.82 315.784 14.335 312.544 14.335C307.234 14.335 304.804 18.205 304.804 22.795C304.804 27.43 307.234 31.3 312.544 31.3ZM327.525 27.79C327.525 24.235 329.64 21.805 334.86 21.265L343.77 20.41C343.545 16.315 341.34 14.29 337.47 14.29C334.23 14.29 331.215 15.73 331.215 19.96H327.615C327.615 15.325 331.125 11.185 337.47 11.185C343.725 11.185 347.46 15.325 347.46 21.31V30.85H350.745V34H346.785C345.075 34 344.13 33.055 344.13 31.39V30.175L344.715 27.835H343.635C342.78 31.255 340.395 34.45 334.995 34.45C328.515 34.45 327.525 30.13 327.525 27.79ZM331.215 27.34C331.215 29.905 332.835 31.3 335.445 31.3C340.53 31.3 343.77 27.79 343.77 23.155L335.49 24.01C332.655 24.28 331.215 25.135 331.215 27.34ZM372.301 28.195C372.301 31.57 370.186 34.45 363.481 34.45C356.236 34.45 353.266 31.075 353.266 25.765H356.956C356.956 29.635 359.206 31.435 363.526 31.435C366.991 31.435 368.611 30.625 368.611 28.33C368.611 25.405 365.596 24.91 361.951 23.785C357.721 22.435 354.301 21.13 354.301 17.08C354.301 13.525 357.316 11.185 362.446 11.185C369.421 11.185 371.536 15.01 371.536 18.7H367.846C367.846 15.685 366.001 14.2 362.446 14.2C359.971 14.2 357.991 14.92 357.991 16.945C357.991 19.105 359.521 19.78 363.121 20.95C367.531 22.39 372.301 23.38 372.301 28.195Z" fill="black"/>
</svg>
