<svg width="375" height="76" viewBox="0 0 375 76" fill="none" xmlns="http://www.w3.org/2000/svg">
<path d="M0.76 71V53.62H9.5C12.28 53.62 14.62 55.76 14.62 58.54C14.62 61.3 12.26 63.48 9.5 63.48H3.28V71H0.76ZM3.28 61.3H9.5C10.98 61.3 12.08 59.98 12.08 58.54C12.08 57.1 10.96 55.78 9.5 55.78H3.28V61.3ZM17.0848 71V58.14H19.4648V59.4L19.7848 58.96C20.7848 58.3 21.8248 58 23.0248 58H23.9248V60.06H23.0248C21.0048 60.06 19.4648 61.7 19.4648 63.74V71H17.0848ZM25.665 64.54C25.665 60.76 28.905 57.94 32.505 57.94C36.125 57.94 39.325 60.76 39.325 64.54C39.325 68.32 36.145 71.16 32.505 71.16C28.905 71.16 25.665 68.3 25.665 64.54ZM32.505 69.1C34.965 69.1 36.945 67.06 36.945 64.54C36.945 62.02 34.945 60 32.505 60C30.065 60 28.065 62 28.065 64.54C28.065 67.04 30.065 69.1 32.505 69.1ZM40.9566 55.2C40.9566 54.44 41.5366 53.86 42.2766 53.86C43.0166 53.86 43.5966 54.44 43.5966 55.2C43.5966 55.92 43.0166 56.54 42.2766 56.54C41.5366 56.54 40.9566 55.92 40.9566 55.2ZM38.7166 75.24V73.16H39.6366C40.4966 73.16 41.1366 72.4 41.1366 71.56V58.16H43.4966V71.56C43.4966 72.1 43.3366 72.62 43.0966 73.08C42.4366 74.48 41.1766 75.24 39.6366 75.24H38.7166ZM48.3166 65.54L48.6166 65.82C49.1966 67.64 50.8366 68.92 52.7166 68.92C54.0166 68.92 55.2566 68.3 56.1366 67.34H58.7166C57.3366 69.56 55.2966 70.98 52.7166 70.98C49.1966 70.98 46.0166 68.2 46.0166 64.52C46.0166 60.82 49.1966 58.04 52.7166 58.04C56.2766 58.04 59.4166 60.8 59.4166 64.52V65.54H48.3166ZM48.3166 63.46H57.1366L56.8566 63.2C56.2566 61.38 54.6166 60.1 52.7166 60.1C50.8366 60.1 49.1966 61.4 48.6166 63.2L48.3166 63.46ZM66.0542 71.02H65.1542C63.0742 71.02 61.2742 69.44 61.2742 67.34V56.12H63.6542V58.12H65.4542V60.2H63.6542V67.34C63.6542 68.16 64.2742 68.96 65.1542 68.96H66.0542V71.02ZM67.7158 64.54C67.7158 60.76 70.9558 57.94 74.5558 57.94C78.1758 57.94 81.3758 60.76 81.3758 64.54C81.3758 68.32 78.1958 71.16 74.5558 71.16C70.9558 71.16 67.7158 68.3 67.7158 64.54ZM74.5558 69.1C77.0158 69.1 78.9958 67.06 78.9958 64.54C78.9958 62.02 76.9958 60 74.5558 60C72.1158 60 70.1158 62 70.1158 64.54C70.1158 67.04 72.1158 69.1 74.5558 69.1ZM100.594 71V69.22L100.254 69.72C99.0736 70.58 97.7736 71 96.2736 71C92.7536 71 89.5736 68.22 89.5736 64.54C89.5736 60.84 92.7536 58.06 96.2736 58.06C97.7936 58.06 99.0536 58.48 100.254 59.36L100.594 59.86V53.74H102.974V71H100.594ZM96.2736 68.94C98.6336 68.94 100.594 66.96 100.594 64.54C100.594 62.08 98.6536 60.12 96.2736 60.12C93.9136 60.12 91.9736 62.1 91.9736 64.54C91.9736 66.98 93.8936 68.94 96.2736 68.94ZM107.555 65.54L107.855 65.82C108.435 67.64 110.075 68.92 111.955 68.92C113.255 68.92 114.495 68.3 115.375 67.34H117.955C116.575 69.56 114.535 70.98 111.955 70.98C108.435 70.98 105.255 68.2 105.255 64.52C105.255 60.82 108.435 58.04 111.955 58.04C115.515 58.04 118.655 60.8 118.655 64.52V65.54H107.555ZM107.555 63.46H116.375L116.095 63.2C115.495 61.38 113.855 60.1 111.955 60.1C110.075 60.1 108.435 61.4 107.855 63.2L107.555 63.46ZM127.479 71V53.62H136.219C138.999 53.62 141.339 55.76 141.339 58.54C141.339 61.3 138.979 63.48 136.219 63.48H129.999V71H127.479ZM129.999 61.3H136.219C137.699 61.3 138.799 59.98 138.799 58.54C138.799 57.1 137.679 55.78 136.219 55.78H129.999V61.3ZM143.224 64.54C143.224 60.76 146.464 57.94 150.064 57.94C153.684 57.94 156.884 60.76 156.884 64.54C156.884 68.32 153.704 71.16 150.064 71.16C146.464 71.16 143.224 68.3 143.224 64.54ZM150.064 69.1C152.524 69.1 154.504 67.06 154.504 64.54C154.504 62.02 152.504 60 150.064 60C147.624 60 145.624 62 145.624 64.54C145.624 67.04 147.624 69.1 150.064 69.1ZM159.155 71V58.14H161.535V59.4L161.855 58.96C162.855 58.3 163.895 58 165.095 58H165.995V60.06H165.095C163.075 60.06 161.535 61.7 161.535 63.74V71H159.155ZM172.675 71.02H171.775C169.695 71.02 167.895 69.44 167.895 67.34V56.12H170.275V58.12H172.075V60.2H170.275V67.34C170.275 68.16 170.895 68.96 171.775 68.96H172.675V71.02ZM176.097 70.94V60.06H174.317V58H176.097V56.98C176.097 54.74 178.017 53.06 180.237 53.06H181.577V55.08H180.237C179.197 55.08 178.477 56.04 178.477 56.98V58H180.537V60.06H178.477V70.94H176.097ZM183.009 64.54C183.009 60.76 186.249 57.94 189.849 57.94C193.469 57.94 196.669 60.76 196.669 64.54C196.669 68.32 193.489 71.16 189.849 71.16C186.249 71.16 183.009 68.3 183.009 64.54ZM189.849 69.1C192.309 69.1 194.289 67.06 194.289 64.54C194.289 62.02 192.289 60 189.849 60C187.409 60 185.409 62 185.409 64.54C185.409 67.04 187.409 69.1 189.849 69.1ZM198.94 70.98V53.76H201.34V70.98H198.94ZM204.507 55.14C204.507 54.38 205.067 53.78 205.807 53.78C206.547 53.78 207.127 54.38 207.127 55.14C207.127 55.88 206.547 56.48 205.807 56.48C205.067 56.48 204.507 55.88 204.507 55.14ZM204.507 70.98V58.14H206.907V70.98H204.507ZM209.474 64.54C209.474 60.76 212.714 57.94 216.314 57.94C219.934 57.94 223.134 60.76 223.134 64.54C223.134 68.32 219.954 71.16 216.314 71.16C212.714 71.16 209.474 68.3 209.474 64.54ZM216.314 69.1C218.774 69.1 220.754 67.06 220.754 64.54C220.754 62.02 218.754 60 216.314 60C213.874 60 211.874 62 211.874 64.54C211.874 67.04 213.874 69.1 216.314 69.1Z" fill="white"/>
<path d="M2.285 34V2.275H9.71L18.71 32.965H19.745L28.79 2.275H36.17V34H32.48V5.965L33.11 3.31H32.03L22.94 34H15.515L6.425 3.31H5.39L5.975 5.965V34H2.285ZM48.7573 8.08C46.9123 8.08 45.5173 6.73 45.5173 4.93C45.5173 3.22 46.9123 1.825 48.7573 1.825C50.5573 1.825 51.9973 3.22 51.9973 4.93C51.9973 6.73 50.5573 8.08 48.7573 8.08ZM41.2873 34V30.85H47.5873V14.38L42.9523 14.785V11.635L48.1273 11.185C50.2423 11.005 51.0523 12.175 51.0523 13.885V30.85H57.3523V34H41.2873ZM73.7517 14.335C69.0267 14.335 65.6967 18.07 65.6967 24.1V34H62.0067V11.635H65.6967V15.505L65.1117 18.07H66.1467C67.0467 14.02 69.8817 11.185 74.7417 11.185C79.7817 11.185 83.0667 14.11 83.0667 20.32V34H79.4217V20.815C79.4217 16.135 77.5767 14.335 73.7517 14.335ZM101.768 11.185C106.808 11.185 110.093 14.11 110.093 20.32V34H106.448V20.815C106.448 16.135 104.603 14.335 100.778 14.335C96.053 14.335 92.723 18.07 92.723 24.1V34H89.033V0.924999H92.723V15.505L92.138 18.07H93.173C94.073 14.02 96.908 11.185 101.768 11.185ZM115.247 27.79C115.247 24.235 117.362 21.805 122.582 21.265L131.492 20.41C131.267 16.315 129.062 14.29 125.192 14.29C121.952 14.29 118.937 15.73 118.937 19.96H115.337C115.337 15.325 118.847 11.185 125.192 11.185C131.447 11.185 135.182 15.325 135.182 21.31V30.85H138.467V34H134.507C132.797 34 131.852 33.055 131.852 31.39V30.175L132.437 27.835H131.357C130.502 31.255 128.117 34.45 122.717 34.45C116.237 34.45 115.247 30.13 115.247 27.79ZM118.937 27.34C118.937 29.905 120.557 31.3 123.167 31.3C128.252 31.3 131.492 27.79 131.492 23.155L123.212 24.01C120.377 24.28 118.937 25.135 118.937 27.34ZM160.024 28.195C160.024 31.57 157.909 34.45 151.204 34.45C143.959 34.45 140.989 31.075 140.989 25.765H144.679C144.679 29.635 146.929 31.435 151.249 31.435C154.714 31.435 156.334 30.625 156.334 28.33C156.334 25.405 153.319 24.91 149.674 23.785C145.444 22.435 142.024 21.13 142.024 17.08C142.024 13.525 145.039 11.185 150.169 11.185C157.144 11.185 159.259 15.01 159.259 18.7H155.569C155.569 15.685 153.724 14.2 150.169 14.2C147.694 14.2 145.714 14.92 145.714 16.945C145.714 19.105 147.244 19.78 150.844 20.95C155.254 22.39 160.024 23.38 160.024 28.195ZM179.736 34V2.275H200.526V5.425H183.426V18.07L198.411 17.17V20.365L183.426 21.265V34H179.736ZM210.081 8.08C208.236 8.08 206.841 6.73 206.841 4.93C206.841 3.22 208.236 1.825 210.081 1.825C211.881 1.825 213.321 3.22 213.321 4.93C213.321 6.73 211.881 8.08 210.081 8.08ZM202.611 34V30.85H208.911V14.38L204.276 14.785V11.635L209.451 11.185C211.566 11.005 212.376 12.175 212.376 13.885V30.85H218.676V34H202.611ZM235.075 14.335C230.35 14.335 227.02 18.07 227.02 24.1V34H223.33V11.635H227.02V15.505L226.435 18.07H227.47C228.37 14.02 231.205 11.185 236.065 11.185C241.105 11.185 244.39 14.11 244.39 20.32V34H240.745V20.815C240.745 16.135 238.9 14.335 235.075 14.335ZM249.544 27.79C249.544 24.235 251.659 21.805 256.879 21.265L265.789 20.41C265.564 16.315 263.359 14.29 259.489 14.29C256.249 14.29 253.234 15.73 253.234 19.96H249.634C249.634 15.325 253.144 11.185 259.489 11.185C265.744 11.185 269.479 15.325 269.479 21.31V30.85H272.764V34H268.804C267.094 34 266.149 33.055 266.149 31.39V30.175L266.734 27.835H265.654C264.799 31.255 262.414 34.45 257.014 34.45C250.534 34.45 249.544 30.13 249.544 27.79ZM253.234 27.34C253.234 29.905 254.854 31.3 257.464 31.3C262.549 31.3 265.789 27.79 265.789 23.155L257.509 24.01C254.674 24.28 253.234 25.135 253.234 27.34ZM288.732 14.335C284.007 14.335 280.677 18.07 280.677 24.1V34H276.987V11.635H280.677V15.505L280.092 18.07H281.127C282.027 14.02 284.862 11.185 289.722 11.185C294.762 11.185 298.047 14.11 298.047 20.32V34H294.402V20.815C294.402 16.135 292.557 14.335 288.732 14.335ZM314.544 31.3C317.784 31.3 320.619 29.815 321.249 25.54H324.984C324.444 31.615 319.539 34.135 315.354 34.405L313.284 36.565C314.094 36.16 315.039 35.89 316.209 35.89C317.739 35.89 319.134 36.61 319.134 38.41C319.134 41.875 315.399 42.325 309.729 42.325V39.535C313.824 39.535 316.164 39.58 316.164 38.14C316.164 37.555 315.759 37.24 315.129 37.24C314.319 37.24 313.599 37.42 311.979 38.41L310.404 36.34L312.159 34.27C306.399 33.235 303.114 28.51 303.114 22.795C303.114 16.36 307.299 11.185 314.544 11.185C318.864 11.185 324.399 13.615 324.984 20.095H321.249C320.619 15.82 317.784 14.335 314.544 14.335C309.234 14.335 306.804 18.205 306.804 22.795C306.804 27.43 309.234 31.3 314.544 31.3ZM329.525 27.79C329.525 24.235 331.64 21.805 336.86 21.265L345.77 20.41C345.545 16.315 343.34 14.29 339.47 14.29C336.23 14.29 333.215 15.73 333.215 19.96H329.615C329.615 15.325 333.125 11.185 339.47 11.185C345.725 11.185 349.46 15.325 349.46 21.31V30.85H352.745V34H348.785C347.075 34 346.13 33.055 346.13 31.39V30.175L346.715 27.835H345.635C344.78 31.255 342.395 34.45 336.995 34.45C330.515 34.45 329.525 30.13 329.525 27.79ZM333.215 27.34C333.215 29.905 334.835 31.3 337.445 31.3C342.53 31.3 345.77 27.79 345.77 23.155L337.49 24.01C334.655 24.28 333.215 25.135 333.215 27.34ZM374.301 28.195C374.301 31.57 372.186 34.45 365.481 34.45C358.236 34.45 355.266 31.075 355.266 25.765H358.956C358.956 29.635 361.206 31.435 365.526 31.435C368.991 31.435 370.611 30.625 370.611 28.33C370.611 25.405 367.596 24.91 363.951 23.785C359.721 22.435 356.301 21.13 356.301 17.08C356.301 13.525 359.316 11.185 364.446 11.185C371.421 11.185 373.536 15.01 373.536 18.7H369.846C369.846 15.685 368.001 14.2 364.446 14.2C361.971 14.2 359.991 14.92 359.991 16.945C359.991 19.105 361.521 19.78 365.121 20.95C369.531 22.39 374.301 23.38 374.301 28.195Z" fill="white"/>
</svg>
